<svg width="18" height="18" viewBox="0 0 18 18" fill="none" xmlns="http://www.w3.org/2000/svg">
<path d="M16 0H2C0.9 0 0 0.9 0 2V16C0 17.1 0.9 18 2 18H16C17.1 18 18 17.1 18 16V2C18 0.9 17.1 0 16 0ZM16 16H2V2H16V16Z" fill="#878181"/>
<path d="M8.25 4.72H3.25V6.22H8.25V4.72Z" fill="#878181"/>
<path d="M15 12.75H10V14.25H15V12.75Z" fill="#878181"/>
<path d="M15 10.25H10V11.75H15V10.25Z" fill="#878181"/>
<path d="M5 15H6.5V13H8.5V11.5H6.5V9.5H5V11.5H3V13H5V15Z" fill="#878181"/>
<path d="M11.0893 7.95L12.4993 6.54L13.9093 7.95L14.9693 6.89L13.5593 5.47L14.9693 4.06L13.9093 3L12.4993 4.41L11.0893 3L10.0293 4.06L11.4393 5.47L10.0293 6.89L11.0893 7.95Z" fill="#878181"/>
</svg>
