<svg width="26" height="31" viewBox="0 0 26 31" fill="none" xmlns="http://www.w3.org/2000/svg">
<path d="M16.9838 4.87031C17.9622 3.60731 18.7039 1.82218 18.4356 0C16.8365 0.11113 14.9674 1.13423 13.8767 2.46779C12.8826 3.67611 12.0655 5.47359 12.3846 7.21815C14.1327 7.27284 15.937 6.22504 16.9838 4.87031Z" fill="white"/>
<path d="M25.625 22.0119C24.9254 23.5712 24.5887 24.268 23.6875 25.6492C22.4303 27.5772 20.6576 29.9779 18.4588 29.9956C16.5073 30.0167 16.0041 28.7167 13.3547 28.7326C10.7053 28.7467 10.1529 30.0203 8.19789 30.0009C6.00087 29.9815 4.3211 27.8153 3.06391 25.8873C-0.453425 20.5001 -0.823394 14.1763 1.34557 10.8124C2.88857 8.42403 5.3223 7.02697 7.60874 7.02697C9.93552 7.02697 11.3996 8.31113 13.3266 8.31113C15.1957 8.31113 16.3337 7.02344 19.0252 7.02344C21.0626 7.02344 23.2211 8.14003 24.7571 10.0663C19.7213 12.8428 20.5366 20.0768 25.625 22.0119Z" fill="white"/>
</svg>
