<svg width="19" height="16" viewBox="0 0 19 16" fill="none" xmlns="http://www.w3.org/2000/svg">
<path fill-rule="evenodd" clip-rule="evenodd" d="M0.867163 8.36495C1.01971 8.36495 1.166 8.42555 1.27387 8.53341C1.38174 8.64128 1.44233 8.78757 1.44233 8.94012V12.9663C1.44233 13.2714 1.56353 13.564 1.77926 13.7797C1.99499 13.9955 2.28759 14.1167 2.59268 14.1167H16.3968C16.7019 14.1167 16.9945 13.9955 17.2102 13.7797C17.4259 13.564 17.5471 13.2714 17.5471 12.9663V8.94012C17.5471 8.78757 17.6077 8.64128 17.7156 8.53341C17.8234 8.42555 17.9697 8.36495 18.1223 8.36495C18.2748 8.36495 18.4211 8.42555 18.529 8.53341C18.6369 8.64128 18.6975 8.78757 18.6975 8.94012V12.9663C18.6975 13.5765 18.4551 14.1617 18.0236 14.5931C17.5921 15.0246 17.007 15.267 16.3968 15.267H2.59268C1.9825 15.267 1.39731 15.0246 0.965847 14.5931C0.534385 14.1617 0.291992 13.5765 0.291992 12.9663V8.94012C0.291992 8.78757 0.35259 8.64128 0.460456 8.53341C0.568321 8.42555 0.714618 8.36495 0.867163 8.36495ZM6.0437 4.74597C6.15156 4.8538 6.29783 4.91438 6.45035 4.91438C6.60286 4.91438 6.74913 4.8538 6.85699 4.74597L9.49473 2.10709L12.1325 4.74482C12.1855 4.79976 12.249 4.84358 12.3192 4.87372C12.3893 4.90386 12.4648 4.91973 12.5412 4.92039C12.6175 4.92106 12.6933 4.90651 12.764 4.87759C12.8347 4.84867 12.8989 4.80596 12.9529 4.75195C13.0069 4.69795 13.0496 4.63373 13.0785 4.56304C13.1074 4.49236 13.122 4.41662 13.1213 4.34025C13.1207 4.26388 13.1048 4.1884 13.0746 4.11823C13.0445 4.04806 13.0007 3.98459 12.9458 3.93153L9.90195 0.887728C9.84852 0.834164 9.78505 0.791667 9.71517 0.762671C9.64529 0.733675 9.57038 0.71875 9.49473 0.71875C9.41907 0.71875 9.34416 0.733675 9.27428 0.762671C9.2044 0.791667 9.14093 0.834164 9.0875 0.887728L6.0437 3.93153C5.99014 3.98496 5.94764 4.04843 5.91864 4.11831C5.88965 4.18819 5.87472 4.2631 5.87472 4.33875C5.87472 4.41441 5.88965 4.48932 5.91864 4.5592C5.94764 4.62907 5.99014 4.69255 6.0437 4.74597Z" fill="white"/>
<path fill-rule="evenodd" clip-rule="evenodd" d="M9.49509 1.46484C9.64764 1.46484 9.79393 1.52544 9.9018 1.63331C10.0097 1.74117 10.0703 1.88747 10.0703 2.04001V11.2427C10.0703 11.3953 10.0097 11.5416 9.9018 11.6495C9.79393 11.7573 9.64764 11.8179 9.49509 11.8179C9.34255 11.8179 9.19625 11.7573 9.08839 11.6495C8.98052 11.5416 8.91992 11.3953 8.91992 11.2427V2.04001C8.91992 1.88747 8.98052 1.74117 9.08839 1.63331C9.19625 1.52544 9.34255 1.46484 9.49509 1.46484Z" fill="white"/>
</svg>
