<svg width="22" height="22" viewBox="0 0 22 22" fill="none" xmlns="http://www.w3.org/2000/svg">
<path d="M15.1243 5.49984V16.0415C15.1243 18.0673 13.4835 19.7082 11.4577 19.7082C9.43185 19.7082 7.79102 18.0673 7.79102 16.0415V4.58317C7.79102 3.31817 8.81768 2.2915 10.0827 2.2915C11.3477 2.2915 12.3743 3.31817 12.3743 4.58317V14.2082C12.3743 14.7123 11.9618 15.1248 11.4577 15.1248C10.9535 15.1248 10.541 14.7123 10.541 14.2082V5.49984H9.16602V14.2082C9.16602 15.4732 10.1927 16.4998 11.4577 16.4998C12.7227 16.4998 13.7493 15.4732 13.7493 14.2082V4.58317C13.7493 2.55734 12.1085 0.916504 10.0827 0.916504C8.05685 0.916504 6.41602 2.55734 6.41602 4.58317V16.0415C6.41602 18.8282 8.67102 21.0832 11.4577 21.0832C14.2443 21.0832 16.4993 18.8282 16.4993 16.0415V5.49984H15.1243Z" fill="#1F53D7"/>
</svg>
