<svg width="24" height="24" viewBox="0 0 24 24" fill="none" xmlns="http://www.w3.org/2000/svg">
<circle cx="12" cy="12" r="12" fill="#EB5757"/>
<path d="M10.2012 10.2012H11.1012V15.6012H10.2012V10.2012Z" fill="white"/>
<path d="M12.9004 10.2012H13.8004V15.6012H12.9004V10.2012Z" fill="white"/>
<path d="M6.60156 7.5V8.4H7.50156V17.4C7.50156 17.6387 7.59638 17.8676 7.76517 18.0364C7.93395 18.2052 8.16287 18.3 8.40156 18.3H15.6016C15.8403 18.3 16.0692 18.2052 16.238 18.0364C16.4067 17.8676 16.5016 17.6387 16.5016 17.4V8.4H17.4016V7.5H6.60156ZM8.40156 17.4V8.4H15.6016V17.4H8.40156Z" fill="white"/>
<path d="M10.2012 5.70117H13.8012V6.60117H10.2012V5.70117Z" fill="white"/>
</svg>
