<svg width="100" height="100" viewBox="0 0 100 100" fill="none" xmlns="http://www.w3.org/2000/svg">
<g clip-path="url(#clip0)">
<path d="M98.6493 25.3442C98.5473 25.1402 98.5473 25.0382 98.3433 24.8343C98.2413 24.6303 98.0374 24.5283 97.7314 24.4263L74.376 12.2896L50.7146 0.152983C50.3066 -0.0509944 49.7967 -0.0509944 49.3887 0.152983L25.6253 12.2896L2.1679 24.4263C1.86193 24.5283 1.55597 24.8343 1.45398 25.1402C1.35199 25.3442 1.35199 25.4462 1.25 25.6502V25.7522V74.2988C1.25 74.8088 1.55597 75.3187 2.06591 75.6247L49.2867 99.796C49.3887 99.898 49.4907 99.898 49.5927 99.898H49.6947C49.7967 99.898 49.8987 100 50.1026 100C50.3066 100 50.4086 100 50.6126 99.898C50.6126 99.898 50.7146 99.898 50.7146 99.796C50.7146 99.796 50.8166 99.796 50.8166 99.694L97.9354 75.6247C98.4453 75.3187 98.7513 74.8088 98.7513 74.2988V25.7522C98.7513 25.5482 98.7513 25.4462 98.6493 25.3442ZM50.0006 3.11066L72.9481 14.9414L94.0598 25.7522L73.662 36.257L29.6029 13.6155L50.0006 3.11066ZM48.5728 96.2264L4.20767 73.3809V28.1999L25.7273 39.2147L48.5728 50.9434V96.2264ZM50.0006 48.3937L27.0532 36.563L5.94148 25.7522L26.3392 15.2473L70.3984 37.8888L50.0006 48.3937ZM95.7936 73.4829L51.4285 96.1244V50.9434L74.274 39.2147L95.7936 28.1999V73.4829Z" fill="black"/>
<path d="M84.7793 44.1102C84.8812 44.1102 84.7793 44.0082 84.7793 43.9063C84.3713 42.7844 83.4534 42.0705 82.4335 41.6625C81.3116 41.2545 79.9858 41.3565 78.7619 41.9685L67.5431 47.3739C66.3193 47.9858 65.2994 49.0057 64.6875 50.1276C64.0755 51.2494 63.9735 52.5753 64.3815 53.6972C64.7894 54.8191 65.7073 55.635 66.7272 56.0429C67.8491 56.4509 69.175 56.3489 70.3988 55.7369L81.6176 50.3315C82.8415 49.7196 83.8614 48.6997 84.4733 47.5778C84.9832 46.456 85.1872 45.2321 84.7793 44.1102ZM81.8216 46.7619C81.6176 47.1699 81.2096 47.5778 80.8017 47.7818L69.5829 53.1872C69.073 53.3912 68.563 53.4932 68.1551 53.2892C67.7471 53.1872 67.4412 52.8813 67.2372 52.4733V52.3713C67.1352 51.9634 67.1352 51.4534 67.3392 51.0455C67.5431 50.6375 67.9511 50.2296 68.3591 50.0256L79.5778 44.6202C80.0878 44.4162 80.5977 44.3142 81.0057 44.5182C81.4136 44.6202 81.7196 44.9261 81.9236 45.4361C82.1275 45.844 82.0256 46.354 81.8216 46.7619Z" fill="black"/>
</g>
<defs>
<clipPath id="clip0">
<rect width="100" height="100" fill="white"/>
</clipPath>
</defs>
</svg>
