<svg width="80" height="80" viewBox="0 0 80 80" fill="none" xmlns="http://www.w3.org/2000/svg">
<path fill-rule="evenodd" clip-rule="evenodd" d="M1.66797 19.5212C1.66797 15.2153 5.09444 11.6641 9.39524 11.6641H63.9406C68.2416 11.6641 71.668 15.2153 71.668 19.5212V36.6641C71.668 37.5844 70.9216 38.3307 70.0013 38.3307C69.081 38.3307 68.3346 37.5844 68.3346 36.6641V19.5212C68.3346 16.9893 66.3343 14.9974 63.9406 14.9974H9.39524C7.00167 14.9974 5.0013 16.9893 5.0013 19.5212V50.4737C5.0013 53.0054 7.00167 54.9974 9.39524 54.9974H33.3346C34.255 54.9974 35.0013 55.7437 35.0013 56.6641C35.0013 57.5844 34.255 58.3307 33.3346 58.3307H9.39524C5.09444 58.3307 1.66797 54.7794 1.66797 50.4737V19.5212Z" fill="white"/>
<path fill-rule="evenodd" clip-rule="evenodd" d="M1.66797 23.3307C1.66797 22.4103 2.41416 21.6641 3.33464 21.6641H70.0013C70.9216 21.6641 71.668 22.4103 71.668 23.3307C71.668 24.2512 70.9216 24.9974 70.0013 24.9974H3.33464C2.41416 24.9974 1.66797 24.2512 1.66797 23.3307Z" fill="white"/>
<path fill-rule="evenodd" clip-rule="evenodd" d="M8.33594 39.9948C8.33594 39.0745 9.08214 38.3281 10.0026 38.3281H16.6693C17.5897 38.3281 18.3359 39.0745 18.3359 39.9948C18.3359 40.9151 17.5897 41.6614 16.6693 41.6614H10.0026C9.08214 41.6614 8.33594 40.9151 8.33594 39.9948Z" fill="white"/>
<path fill-rule="evenodd" clip-rule="evenodd" d="M8.33594 48.3307C8.33594 47.4104 9.08214 46.6641 10.0026 46.6641H23.3359C24.2564 46.6641 25.0026 47.4104 25.0026 48.3307C25.0026 49.251 24.2564 49.9974 23.3359 49.9974H10.0026C9.08214 49.9974 8.33594 49.251 8.33594 48.3307Z" fill="white"/>
<path fill-rule="evenodd" clip-rule="evenodd" d="M60.0013 44.9974C51.717 44.9974 45.0013 51.7131 45.0013 59.9974C45.0013 68.2817 51.717 74.9974 60.0013 74.9974C68.2856 74.9974 75.0013 68.2817 75.0013 59.9974C75.0013 51.7131 68.2856 44.9974 60.0013 44.9974ZM41.668 59.9974C41.668 49.8721 49.876 41.6641 60.0013 41.6641C70.1266 41.6641 78.3346 49.8721 78.3346 59.9974C78.3346 70.1227 70.1266 78.3307 60.0013 78.3307C49.876 78.3307 41.668 70.1227 41.668 59.9974Z" fill="white"/>
<path fill-rule="evenodd" clip-rule="evenodd" d="M65.4906 57.1521C66.1416 56.5014 67.1969 56.5014 67.8479 57.1521C68.4986 57.8031 68.4986 58.8584 67.8479 59.5094L61.1813 66.1761C60.5303 66.8267 59.4749 66.8267 58.8239 66.1761L53.8239 61.1761C53.1733 60.5251 53.1733 59.4697 53.8239 58.8187C54.4749 58.1681 55.5303 58.1681 56.1813 58.8187L60.0026 62.6404L65.4906 57.1521Z" fill="white"/>
</svg>
