<svg width="28" height="28" viewBox="0 0 28 28" fill="none" xmlns="http://www.w3.org/2000/svg">
<path fill-rule="evenodd" clip-rule="evenodd" d="M14.0008 25.2008C16.9712 25.2008 19.82 24.0208 21.9204 21.9204C24.0208 19.82 25.2008 16.9712 25.2008 14.0008C25.2008 11.0304 24.0208 8.18159 21.9204 6.08119C19.82 3.98078 16.9712 2.80078 14.0008 2.80078C11.0304 2.80078 8.18159 3.98078 6.08119 6.08119C3.98078 8.18159 2.80078 11.0304 2.80078 14.0008C2.80078 16.9712 3.98078 19.82 6.08119 21.9204C8.18159 24.0208 11.0304 25.2008 14.0008 25.2008ZM19.1906 12.1906C19.4456 11.9265 19.5867 11.5729 19.5835 11.2058C19.5803 10.8387 19.4331 10.4876 19.1735 10.228C18.914 9.96846 18.5628 9.82123 18.1957 9.81804C17.8287 9.81485 17.475 9.95596 17.211 10.211L12.6008 14.8212L10.7906 13.011C10.5265 12.756 10.1729 12.6148 9.80582 12.618C9.43874 12.6212 9.08761 12.7685 8.82804 13.028C8.56846 13.2876 8.42123 13.6387 8.41804 14.0058C8.41485 14.3729 8.55596 14.7265 8.81098 14.9906L11.611 17.7906C11.8735 18.053 12.2296 18.2005 12.6008 18.2005C12.972 18.2005 13.328 18.053 13.5906 17.7906L19.1906 12.1906Z" fill="#00DC7D"/>
</svg>
