<svg width="17" height="14" viewBox="0 0 17 14" fill="none" xmlns="http://www.w3.org/2000/svg">
<path d="M1.312 4.896C1.048 4.896 0.82 4.8 0.628 4.608C0.436 4.416 0.34 4.188 0.34 3.924V1.548C0.34 1.284 0.436 1.056 0.628 0.864C0.82 0.671999 1.048 0.575999 1.312 0.575999H15.172C15.436 0.575999 15.664 0.671999 15.856 0.864C16.048 1.056 16.144 1.284 16.144 1.548V3.924C16.144 4.188 16.048 4.416 15.856 4.608C15.664 4.8 15.436 4.896 15.172 4.896H1.312ZM1.312 13.788C1.048 13.788 0.82 13.692 0.628 13.5C0.436 13.308 0.34 13.08 0.34 12.816V10.44C0.34 10.176 0.436 9.948 0.628 9.756C0.82 9.564 1.048 9.468 1.312 9.468H15.172C15.436 9.468 15.664 9.564 15.856 9.756C16.048 9.948 16.144 10.176 16.144 10.44V12.816C16.144 13.08 16.048 13.308 15.856 13.5C15.664 13.692 15.436 13.788 15.172 13.788H1.312Z" fill="black"/>
</svg>
