<svg width="16" height="30" viewBox="0 0 16 30" fill="none" xmlns="http://www.w3.org/2000/svg">
<path fill-rule="evenodd" clip-rule="evenodd" d="M0.508246 15.978H3.96197V29.5161C3.96197 29.7834 4.18942 30 4.47015 30H10.3261C10.6068 30 10.8343 29.7834 10.8343 29.5161V16.0418H14.8047C15.0628 16.0418 15.2801 15.8573 15.3095 15.6132L15.9126 10.6291C15.9291 10.492 15.8835 10.3547 15.7871 10.2518C15.6907 10.1488 15.5527 10.0899 15.4078 10.0899H10.8345V6.96562C10.8345 6.02385 11.3671 5.54625 12.4177 5.54625C12.5674 5.54625 15.4078 5.54625 15.4078 5.54625C15.6886 5.54625 15.916 5.32957 15.916 5.06238V0.487441C15.916 0.220137 15.6886 0.00357422 15.4078 0.00357422H11.2869C11.2578 0.00222656 11.1933 0 11.0982 0C10.3831 0 7.89778 0.133652 5.93452 1.85332C3.75926 3.75902 4.06166 6.04072 4.13391 6.43635V10.0898H0.508185C0.227446 10.0898 0 10.3063 0 10.5737V15.4941C6.15385e-05 15.7613 0.227508 15.978 0.508246 15.978Z" fill="#385C8E"/>
</svg>
