<svg width="80" height="80" viewBox="0 0 80 80" fill="none" xmlns="http://www.w3.org/2000/svg">
<g clip-path="url(#clip0)">
<path d="M79.8836 30.8828L76.0721 9.8001C75.5343 6.82511 73.1743 4.46512 70.1996 3.92746L49.1165 0.115916C46.7681 -0.307989 44.3575 0.445602 42.6699 2.13341L2.12985 42.6729C-0.709978 45.5132 -0.709978 50.1346 2.13001 52.9751L27.0241 77.8694C28.4444 79.2895 30.3097 79.9995 32.1754 79.9995C34.0408 79.9995 35.9063 79.2895 37.3264 77.8694L77.8661 37.33C79.5544 35.642 80.3085 33.2319 79.8836 30.8828ZM74.5485 34.0123L34.0089 74.5519C32.9977 75.563 31.3529 75.563 30.3419 74.5519L5.44781 49.6574C4.43672 48.6464 4.43672 47.0015 5.44765 45.9904L45.9872 5.45089C46.4778 4.96043 47.1397 4.69152 47.8212 4.69152C47.9745 4.69152 48.1287 4.70512 48.2822 4.73277L69.3651 8.54448C70.4238 8.73573 71.2638 9.57588 71.4552 10.6348L75.2668 31.7174C75.418 32.5534 75.1494 33.4114 74.5485 34.0123Z" fill="black"/>
<path d="M65.308 14.6281C62.8041 12.1239 58.7297 12.124 56.2258 14.6281C53.7216 17.1322 53.7216 21.2064 56.2258 23.7104C57.4777 24.9624 59.1222 25.5885 60.7669 25.5885C62.4116 25.5885 64.056 24.9624 65.3078 23.7106C66.5209 22.4974 67.1889 20.8848 67.1889 19.1693C67.1891 17.4539 66.5211 15.8411 65.308 14.6281ZM61.9905 20.3926V20.3928C61.316 21.0675 60.2183 21.0678 59.5435 20.3928C58.8688 19.7181 58.8688 18.6203 59.5435 17.9456C59.8808 17.6082 60.3239 17.4397 60.7669 17.4397C61.2102 17.4397 61.6531 17.6086 61.9905 17.9457C62.3174 18.2726 62.4974 18.707 62.4974 19.1692C62.4974 19.6314 62.3174 20.0657 61.9905 20.3926Z" fill="black"/>
<path d="M29.835 59.6189L26.2104 55.9942L28.3318 53.8728C28.5471 53.6575 28.6266 53.4093 28.5704 53.1283C28.5143 52.8472 28.3786 52.5993 28.163 52.3836C27.9291 52.1497 27.6688 52.0068 27.3833 51.9552C27.0975 51.9036 26.8516 51.981 26.6458 52.1868L24.5244 54.3082L22.1499 51.9336L25.7888 48.2947C25.9947 48.0888 26.0629 47.8337 25.9925 47.5293C25.9224 47.2251 25.7515 46.9369 25.4797 46.6652C25.2269 46.4123 24.9507 46.2485 24.6507 46.1733C24.3511 46.0988 24.0937 46.1688 23.8783 46.3841L19.0032 51.2593C18.7409 51.5218 18.5746 51.805 18.5045 52.1094C18.4341 52.4141 18.5068 52.6736 18.7221 52.8891L27.6435 61.8105C27.8593 62.0263 28.133 62.0847 28.4655 61.9866C28.7979 61.8883 29.1138 61.6892 29.4136 61.3892C29.7133 61.0894 29.9124 60.7736 30.0107 60.4411C30.1091 60.1086 30.0508 59.8347 29.835 59.6189Z" fill="black"/>
<path d="M41.6233 47.0711C41.5203 46.9681 41.4128 46.9071 41.3002 46.8884L36.4813 45.4973C37.1742 43.9242 36.7905 42.4065 35.3293 40.9455C33.325 38.9412 31.1705 39.0911 28.8665 41.3951L25.9581 44.3036C25.7613 44.5001 25.6654 44.727 25.6701 44.9848C25.6748 45.2426 25.7662 45.4603 25.944 45.6381L34.8794 54.5735C35.0952 54.7893 35.3688 54.8479 35.7013 54.7493C36.0338 54.651 36.3497 54.452 36.6494 54.1523C36.9491 53.8526 37.1481 53.5368 37.2467 53.2042C37.345 52.8717 37.2866 52.5979 37.0708 52.3821L33.685 48.9964L34.6124 48.069L40.2744 49.8814C40.6866 50.0126 41.0564 49.9143 41.3842 49.5864C41.712 49.2585 41.9019 48.8253 41.9531 48.2864C42.0052 47.7478 41.8948 47.3428 41.6233 47.0711ZM33.3905 45.9189L31.9994 47.31L29.3863 44.6968L30.7774 43.3058C31.1894 42.8937 31.604 42.6808 32.0208 42.6667C32.4375 42.6528 32.88 42.8795 33.3483 43.3478C33.8169 43.8164 34.0438 44.2589 34.0297 44.6756C34.0155 45.0925 33.8025 45.5067 33.3905 45.9189Z" fill="black"/>
<path d="M49.9266 40.3114C49.8518 40.0117 49.6878 39.7355 49.4349 39.4825C49.1633 39.211 48.8753 39.0402 48.5708 38.9697C48.2663 38.8999 48.011 38.9677 47.8052 39.1734L44.0399 42.9388L41.6516 40.5505L43.7591 38.443C43.9744 38.2277 44.0541 37.9792 43.9979 37.6983C43.9418 37.4172 43.8061 37.1692 43.5905 36.9536C43.3566 36.7197 43.0963 36.5767 42.8108 36.5252C42.5249 36.4738 42.279 36.5511 42.0732 36.7569L39.9657 38.8644L37.5912 36.4899L41.3565 32.7246C41.5624 32.5186 41.6305 32.2635 41.5604 31.9589C41.4902 31.6547 41.3193 31.3666 41.0476 31.0949C40.7947 30.8418 40.5185 30.6782 40.2185 30.603C39.919 30.5285 39.6613 30.5986 39.446 30.8139L34.4445 35.8155C34.1824 36.0778 34.016 36.3611 33.9459 36.6655C33.8755 36.9702 33.9482 37.2297 34.1635 37.4452L43.0849 46.3666C43.3007 46.5823 43.5602 46.655 43.8644 46.5844C44.169 46.5144 44.4519 46.348 44.7143 46.0856L49.7158 41.0841C49.9311 40.8688 50.0016 40.6114 49.9266 40.3114Z" fill="black"/>
<path d="M57.4988 32.7409C57.424 32.4413 57.2601 32.165 57.0071 31.912C56.7356 31.6405 56.4476 31.4697 56.1431 31.3992C55.8385 31.3294 55.5834 31.397 55.3774 31.603L51.6123 35.3681L49.224 32.9798L51.3314 30.8725C51.5467 30.6572 51.6264 30.4088 51.5701 30.1278C51.514 29.8467 51.3784 29.5988 51.1628 29.3831C50.9289 29.1492 50.6686 29.0063 50.3831 28.9549C50.0972 28.9035 49.8514 28.9806 49.6454 29.1866L47.5381 31.2939L45.1636 28.9194L48.9287 25.1542C49.1348 24.9482 49.2028 24.6932 49.1326 24.3886C49.0625 24.0844 48.8915 23.7963 48.6198 23.5246C48.367 23.2714 48.0908 23.1078 47.7908 23.0327C47.4912 22.9582 47.2336 23.0283 47.0183 23.2436L42.0167 28.2452C41.7547 28.5074 41.5883 28.7908 41.5181 29.0952C41.4478 29.3999 41.5205 29.6594 41.7358 29.8749L50.6572 38.7962C50.8729 39.012 51.1325 39.0847 51.4367 39.014C51.7412 38.944 52.0242 38.7776 52.2865 38.5153L57.2881 33.5138C57.5034 33.2984 57.5738 33.0409 57.4988 32.7409Z" fill="black"/>
</g>
<defs>
<clipPath id="clip0">
<rect width="80" height="80" fill="white"/>
</clipPath>
</defs>
</svg>
