<svg width="100" height="100" viewBox="0 0 100 100" fill="none" xmlns="http://www.w3.org/2000/svg">
<g clip-path="url(#clip0)">
<path d="M68.5784 56.3845L55.0016 48.0423C54.8362 47.9405 54.6459 47.8716 54.4539 47.8415L50.2034 47.0915C49.417 46.9525 48.6448 47.4935 48.5061 48.2798C48.3674 49.0661 48.9079 49.8384 49.6942 49.9771L53.7053 50.6849L67.0446 58.8812C67.6957 59.2814 68.5889 59.087 69.0211 58.4581C69.4848 57.7831 69.2754 56.8132 68.5784 56.3845Z" fill="black"/>
<path d="M99.5149 56.853C98.9622 56.2618 98.0352 56.2305 97.444 56.7828L91.5048 62.3336L64.2903 35.4817L99.4462 2.53481C100.036 1.98149 100.066 1.05434 99.5133 0.464106C98.9602 -0.126129 98.0329 -0.156207 97.4426 0.396918L61.1751 34.3856C60.577 34.9459 60.5645 35.9217 61.1479 36.4975L63.5551 38.8723L62.7868 39.5508L46.6967 38.1653C46.4485 38.1442 46.1905 38.187 45.9639 38.2916L33.2153 44.0979C33.1782 44.0883 33.1411 44.0789 33.1026 44.0721L25.7694 42.778L26.3624 41.2621C26.6555 40.5125 26.2893 39.6668 25.5421 39.3682L2.10143 29.992C1.34987 29.6911 0.497524 30.0569 0.197134 30.8082C-0.103452 31.5594 0.261977 32.4121 1.01334 32.7125L23.1038 41.5489L10.0858 74.8162L2.04635 71.9688C1.28346 71.6989 0.446352 72.0979 0.176235 72.8608C-0.093882 73.6235 0.305532 74.4608 1.06823 74.7309L10.4444 78.0516C11.1803 78.3123 12.0135 77.9309 12.2977 77.2043L14.4733 71.6446L20.1739 74.8391L19.5452 75.8582C17.7637 78.7455 18.6631 82.544 21.5506 84.3256C23.0776 85.2678 24.9731 85.4912 26.6794 84.9389C26.953 86.717 27.9979 88.3037 29.5301 89.2491C31.0571 90.1912 32.9524 90.4147 34.6589 89.8623C34.9327 91.6405 35.9772 93.227 37.5094 94.1725C39.0411 95.1176 40.9266 95.3401 42.6385 94.7875C42.9128 96.5649 43.9571 98.1508 45.4889 99.0959C47.7153 100.47 50.6622 100.264 52.669 98.5823C53.1749 98.1582 53.6102 97.6522 53.9567 97.0905L54.9561 95.4709L55.779 95.9764C58.0083 97.3461 60.9544 97.1352 62.9581 95.4494C63.4632 95.0244 63.8975 94.5176 64.243 93.9553C64.9297 92.8375 65.2139 91.5848 65.1389 90.3653C65.6042 90.4772 66.0803 90.5373 66.5608 90.5373C68.6885 90.5373 70.7012 89.4153 71.8147 87.6032C72.4854 86.5114 72.7919 85.2666 72.7141 84.0137C73.1782 84.125 73.6534 84.1848 74.1323 84.1848C76.26 84.1848 78.2729 83.0627 79.3862 81.2506C80.0575 80.158 80.3637 78.9125 80.2854 77.6586C80.7546 77.7703 81.2309 77.8287 81.7051 77.8287C83.7743 77.8287 85.7975 76.7869 86.9579 74.8985C88.734 72.0077 87.8274 68.211 84.9366 66.4348L83.9327 65.818L87.2997 62.3L90.4491 65.4075C91.0014 65.9522 91.9118 65.9643 92.4784 65.435L99.4454 58.9239C100.036 58.3713 100.067 57.4442 99.5149 56.853ZM27.5247 80.7815C26.5913 82.2938 24.6016 82.7649 23.0891 81.8321C21.5766 80.8989 21.1055 78.9092 22.0385 77.3967L30.2444 64.0977C31.1602 62.6133 33.1255 62.128 34.626 63.0145C36.1788 63.9325 36.6073 66.0612 35.6751 67.5723L27.5247 80.7815ZM35.5038 85.7049C34.5708 87.2172 32.5809 87.6885 31.0686 86.7555C29.5745 85.8334 29.0946 83.8166 30.018 82.3202L36.5825 71.6809C37.4983 70.1967 39.4635 69.7112 40.9641 70.5977C42.5169 71.5157 42.9454 73.6444 42.013 75.1555L35.5038 85.7049ZM43.4839 90.6284C43.0315 91.361 42.321 91.8739 41.4835 92.0723C40.6454 92.2709 39.7807 92.1309 39.0481 91.6789C37.5542 90.7569 37.0743 88.7399 37.9977 87.2436L42.9212 79.2641C43.837 77.7797 45.8024 77.2944 47.3028 78.1809C48.8555 79.0989 49.284 81.2276 48.3518 82.7387L43.4839 90.6284ZM54.6901 90.3223L51.4632 95.552C50.5411 97.0461 48.5243 97.5256 47.0276 96.6024C45.5337 95.6805 45.054 93.6633 45.9772 92.167L49.2594 86.8475C50.1753 85.3635 52.1407 84.8774 53.6411 85.7645C55.1938 86.6823 55.6223 88.8112 54.6901 90.3223ZM81.3784 64.2485L74.1163 59.7862C73.4428 59.3723 72.5149 59.594 72.1012 60.2674C71.6874 60.9409 71.909 61.8688 72.5825 62.2825L83.4022 68.9307C84.9163 69.8612 85.3913 71.8498 84.461 73.3641C83.5305 74.8782 81.5417 75.3532 80.0274 74.4229L68.4233 67.2924C67.734 66.8686 66.8317 67.0844 66.4083 67.7737C65.9848 68.4629 66.2003 69.3653 66.8895 69.7887L75.8309 75.2828C77.3268 76.202 77.8102 78.2182 76.8897 79.7162C75.9706 81.2121 73.9544 81.6953 72.4563 80.775L64.3532 75.7959C63.6637 75.3723 62.7616 75.5879 62.3382 76.2772C61.9147 76.9664 62.1301 77.8688 62.8194 78.2922L68.2596 81.635C69.7553 82.5543 70.2389 84.5701 69.3184 86.0684C68.3993 87.5641 66.3831 88.0477 64.885 87.1272C64.885 87.1272 60.1007 84.1903 60.0559 84.1688C59.387 83.8457 58.569 84.0756 58.1721 84.7217C57.7487 85.411 57.9641 86.3133 58.6534 86.7368L60.6883 87.9871C62.2024 88.9176 62.6772 90.9063 61.7469 92.4205C60.8278 93.9164 58.8116 94.3996 57.3135 93.4793L56.4956 92.9766L57.1844 91.86C58.0651 90.4326 58.3383 88.6748 57.934 87.0373C57.5352 85.4213 56.5403 84.0733 55.1331 83.2414C54.035 82.5926 52.8067 82.3297 51.6106 82.4104C51.8352 81.4455 51.8364 80.4287 51.5958 79.4539C51.1969 77.8379 50.202 76.4899 48.7948 75.658C47.6967 75.009 46.4684 74.7461 45.2723 74.8268C45.8764 72.2315 44.7643 69.4391 42.4565 68.0746C41.3585 67.4258 40.1301 67.1629 38.934 67.2434C39.5382 64.6481 38.426 61.8557 36.1182 60.4912C33.2532 58.7977 29.5003 59.7252 27.7522 62.558L21.7151 72.3424L15.5514 68.8897L24.6799 45.5612L29.6503 46.4383C28.2366 48.1942 27.8391 50.6662 28.8352 52.8539C29.8661 55.1172 32.1055 56.4565 34.4442 56.4563C35.296 56.4563 36.161 56.2786 36.9854 55.9032L45.5651 51.9953C46.2917 51.6645 46.6221 50.7815 46.2911 50.0549C45.9602 49.3286 45.0772 48.9977 44.3507 49.3289L35.7708 53.2366C34.1538 53.9733 32.2383 53.2567 31.5016 51.6393C30.7651 50.0219 31.4815 48.1069 33.0989 47.3702L46.8282 41.1172L63.1598 42.5237C63.2018 42.5274 63.2438 42.5291 63.2856 42.5291C63.6411 42.5291 63.9862 42.3997 64.2551 42.1625L65.6454 40.935L85.213 60.2414L81.3784 64.2485Z" fill="black"/>
</g>
<defs>
<clipPath id="clip0">
<rect width="100" height="100" fill="white"/>
</clipPath>
</defs>
</svg>
