<svg width="24" height="24" viewBox="0 0 24 24" fill="none" xmlns="http://www.w3.org/2000/svg">
<path d="M12 7.38281C10.32 7.38281 8.95312 8.74964 8.95312 10.4297C8.95312 12.1097 10.32 13.4766 12 13.4766C13.68 13.4766 15.0469 12.1097 15.0469 10.4297C15.0469 8.74964 13.68 7.38281 12 7.38281ZM12 12.0703C11.0954 12.0703 10.3594 11.3343 10.3594 10.4297C10.3594 9.52505 11.0954 8.78906 12 8.78906C12.9046 8.78906 13.6406 9.52505 13.6406 10.4297C13.6406 11.3343 12.9046 12.0703 12 12.0703Z" fill="#282828"/>
<path d="M12 4.57031C7.90327 4.57031 4.57031 7.90327 4.57031 12C4.57031 16.0967 7.90327 19.4297 12 19.4297C16.0967 19.4297 19.4297 16.0967 19.4297 12C19.4297 7.90327 16.0967 4.57031 12 4.57031ZM8.10375 16.5896C8.42789 16.395 8.80148 16.2891 9.18745 16.2891H14.8125C15.1985 16.2891 15.5721 16.395 15.8962 16.5896C14.8451 17.4833 13.4845 18.0234 12 18.0234C10.5155 18.0234 9.15488 17.4833 8.10375 16.5896ZM16.8654 15.5466C16.2725 15.1194 15.5566 14.8828 14.8125 14.8828H9.18745C8.44331 14.8828 7.72748 15.1194 7.13461 15.5466C6.40688 14.551 5.97656 13.3249 5.97656 12C5.97656 8.67867 8.67867 5.97656 12 5.97656C15.3213 5.97656 18.0234 8.67867 18.0234 12C18.0234 13.3249 17.5931 14.551 16.8654 15.5466Z" fill="#282828"/>
<path d="M24 14.4514V9.54858L21.8292 9.11442C21.6232 8.41111 21.3423 7.7332 20.9906 7.09027L22.2188 5.24813L18.7519 1.78125L16.9097 3.00937C16.2668 2.65762 15.589 2.37684 14.8856 2.17078L14.4514 0H9.54858L9.11442 2.17083C8.41102 2.37689 7.7332 2.65767 7.09027 3.00942L5.24813 1.78125L1.78125 5.24813L3.00937 7.09027C2.65762 7.7332 2.37684 8.41102 2.17078 9.11442L0 9.54858V14.4514L2.17083 14.8856C2.37684 15.589 2.65762 16.2668 3.00937 16.9097L1.78125 18.7519L5.24813 22.2187L7.09027 20.9906C7.73316 21.3423 8.41111 21.6232 9.11442 21.8292L9.54858 24H14.4514L14.8856 21.8292C15.5889 21.6232 16.2668 21.3423 16.9097 20.9906L18.7519 22.2187L22.2188 18.7519L20.9906 16.9097C21.3423 16.2668 21.6232 15.5889 21.8292 14.8856L24 14.4514ZM20.6874 13.6798L20.5809 14.114C20.3679 14.9814 20.0252 15.8086 19.5623 16.5724L19.3306 16.9548L20.4091 18.5727L18.5727 20.4091L16.9549 19.3306L16.5725 19.5623C15.8086 20.0252 14.9814 20.3679 14.114 20.5809L13.6798 20.6874L13.2986 22.5938H10.7014L10.3202 20.6874L9.88603 20.5809C9.01856 20.3679 8.19141 20.0252 7.42753 19.5623L7.04513 19.3306L5.42733 20.4091L3.59086 18.5727L4.66941 16.9548L4.43766 16.5724C3.97477 15.8086 3.63206 14.9815 3.41911 14.114L3.31256 13.6798L1.40625 13.2986V10.7014L3.31256 10.3202L3.41911 9.88603C3.63206 9.01852 3.97477 8.19136 4.43766 7.42758L4.66941 7.04517L3.59086 5.42737L5.42733 3.59091L7.04513 4.66945L7.42753 4.4377C8.19131 3.97481 9.01847 3.63211 9.88598 3.41916L10.3201 3.31261L10.7014 1.40625H13.2986L13.6798 3.31256L14.114 3.41911C14.9815 3.63206 15.8086 3.97477 16.5724 4.43766L16.9548 4.66941L18.5726 3.59086L20.4091 5.42733L19.3305 7.04513L19.5623 7.42753C20.0252 8.19141 20.3679 9.01856 20.5808 9.88603L20.6874 10.3202L22.5938 10.7014V13.2986L20.6874 13.6798Z" fill="#282828"/>
</svg>
