<svg width="21" height="43" viewBox="0 0 21 43" fill="none" xmlns="http://www.w3.org/2000/svg">
<path d="M3.312 20.896C3.048 20.896 2.82 20.8 2.628 20.608C2.436 20.416 2.34 20.188 2.34 19.924V17.548C2.34 17.284 2.436 17.056 2.628 16.864C2.82 16.672 3.048 16.576 3.312 16.576H17.172C17.436 16.576 17.664 16.672 17.856 16.864C18.048 17.056 18.144 17.284 18.144 17.548V19.924C18.144 20.188 18.048 20.416 17.856 20.608C17.664 20.8 17.436 20.896 17.172 20.896H3.312ZM3.312 29.788C3.048 29.788 2.82 29.692 2.628 29.5C2.436 29.308 2.34 29.08 2.34 28.816V26.44C2.34 26.176 2.436 25.948 2.628 25.756C2.82 25.564 3.048 25.468 3.312 25.468H17.172C17.436 25.468 17.664 25.564 17.856 25.756C18.048 25.948 18.144 26.176 18.144 26.44V28.816C18.144 29.08 18.048 29.308 17.856 29.5C17.664 29.692 17.436 29.788 17.172 29.788H3.312Z" fill="black"/>
<rect x="16.2676" y="10.8193" width="2.04597" height="28.9556" transform="rotate(30 16.2676 10.8193)" fill="#010A1B"/>
</svg>
