<svg width="309" height="276" viewBox="0 0 309 276" fill="none" xmlns="http://www.w3.org/2000/svg">
<g clip-path="url(#clip0_15855_186137)">
<path d="M66.7976 84.9844C65.9686 84.9844 65.1736 85.314 64.5874 85.9009C64.0012 86.4877 63.6719 87.2836 63.6719 88.1135C63.6719 88.9433 64.0012 89.7392 64.5874 90.3261C65.1736 90.9129 65.9686 91.2425 66.7976 91.2425H106.088V89.8775C106.088 88.9074 106.328 87.9524 106.788 87.0984C107.248 86.2443 107.912 85.5179 108.721 84.9844H66.7976Z" fill="#E6E6E6"/>
<path d="M102.551 77.9437H89.2664C88.4374 77.9437 87.6423 77.6141 87.0561 77.0272C86.4699 76.4404 86.1406 75.6445 86.1406 74.8146C86.1406 73.9848 86.4699 73.1889 87.0561 72.602C87.6423 72.0152 88.4374 71.6855 89.2664 71.6855H102.551C103.38 71.6855 104.175 72.0152 104.761 72.602C105.347 73.1889 105.676 73.9848 105.676 74.8146C105.676 75.6445 105.347 76.4404 104.761 77.0272C104.175 77.6141 103.38 77.9437 102.551 77.9437Z" fill="#E6E6E6"/>
<path d="M72.7569 55.6488H21.1824C20.3534 55.6488 19.5583 55.3191 18.9721 54.7323C18.386 54.1455 18.0566 53.3496 18.0566 52.5197C18.0566 51.6898 18.386 50.8939 18.9721 50.3071C19.5583 49.7203 20.3534 49.3906 21.1824 49.3906H72.7569C73.5859 49.3906 74.3809 49.7203 74.9671 50.3071C75.5533 50.8939 75.8826 51.6898 75.8826 52.5197C75.8826 53.3496 75.5533 54.1455 74.9671 54.7323C74.3809 55.3191 73.5859 55.6488 72.7569 55.6488Z" fill="#E6E6E6"/>
<path d="M50.2894 42.35H43.6472C42.8182 42.35 42.0232 42.0203 41.437 41.4335C40.8508 40.8467 40.5215 40.0508 40.5215 39.2209C40.5215 38.391 40.8508 37.5951 41.437 37.0083C42.0232 36.4215 42.8182 36.0918 43.6472 36.0918H50.2894C51.1184 36.0918 51.9134 36.4215 52.4996 37.0083C53.0858 37.5951 53.4151 38.391 53.4151 39.2209C53.4151 40.0508 53.0858 40.8467 52.4996 41.4335C51.9134 42.0203 51.1184 42.35 50.2894 42.35Z" fill="#E6E6E6"/>
<path d="M105.696 147.917H57.0758C55.3148 147.915 53.6265 147.213 52.3812 145.967C51.136 144.72 50.4356 143.03 50.4336 141.267V64.2763C50.4356 62.5134 51.136 60.8232 52.3812 59.5767C53.6265 58.3301 55.3148 57.6289 57.0758 57.627H134.74C136.501 57.6289 138.189 58.3301 139.434 59.5767C140.68 60.8232 141.38 62.5134 141.382 64.2763V83.3588H140.601V64.2763C140.599 62.7208 139.981 61.2295 138.882 60.1296C137.783 59.0297 136.294 58.411 134.74 58.4092H57.0758C55.522 58.411 54.0323 59.0297 52.9335 60.1296C51.8348 61.2295 51.2168 62.7208 51.215 64.2763V141.267C51.2168 142.823 51.8348 144.314 52.9335 145.414C54.0323 146.514 55.522 147.133 57.0758 147.134H105.696V147.917Z" fill="#CCCCCC"/>
<path d="M50.826 101.825H15.3844C13.6234 101.823 11.9351 101.122 10.6898 99.8754C9.44461 98.6288 8.74417 96.9387 8.74219 95.1758V32.5712C8.74417 30.8083 9.44461 29.1182 10.6898 27.8716C11.9351 26.625 13.6234 25.9239 15.3844 25.9219H78.5559C80.3169 25.9239 82.0052 26.625 83.2504 27.8716C84.4957 29.1182 85.1961 30.8083 85.1981 32.5712V58.0164H84.4166V32.5712C84.4149 31.0157 83.7968 29.5244 82.6981 28.4245C81.5994 27.3246 80.1097 26.7059 78.5559 26.7041H15.3844C13.8305 26.7059 12.3409 27.3246 11.2421 28.4245C10.1434 29.5244 9.52538 31.0157 9.52362 32.5712V95.1758C9.52538 96.7313 10.1434 98.2226 11.2421 99.3225C12.3409 100.422 13.8305 101.041 15.3844 101.043H50.826V101.825Z" fill="#CCCCCC"/>
<path d="M209.02 84.9844C209.829 85.5179 210.493 86.2443 210.953 87.0984C211.412 87.9524 211.653 88.9074 211.653 89.8775V91.2425H250.943C251.772 91.2425 252.567 90.9129 253.154 90.3261C253.74 89.7392 254.069 88.9433 254.069 88.1135C254.069 87.2836 253.74 86.4877 253.154 85.9009C252.567 85.314 251.772 84.9844 250.943 84.9844H209.02Z" fill="#E6E6E6"/>
<path d="M212.064 74.8146C212.065 73.985 212.395 73.1897 212.981 72.6031C213.567 72.0165 214.361 71.6865 215.19 71.6855H228.475C229.304 71.6855 230.099 72.0152 230.685 72.602C231.271 73.1889 231.6 73.9848 231.6 74.8146C231.6 75.6445 231.271 76.4404 230.685 77.0272C230.099 77.6141 229.304 77.9437 228.475 77.9437H215.19C214.361 77.9428 213.567 77.6128 212.981 77.0262C212.395 76.4396 212.065 75.6442 212.064 74.8146Z" fill="#E6E6E6"/>
<path d="M241.859 52.5197C241.86 51.6901 242.19 50.8948 242.776 50.3082C243.362 49.7215 244.156 49.3916 244.985 49.3906H296.56C297.389 49.3906 298.184 49.7203 298.77 50.3071C299.356 50.8939 299.685 51.6898 299.685 52.5197C299.685 53.3496 299.356 54.1455 298.77 54.7323C298.184 55.3191 297.389 55.6488 296.56 55.6488H244.985C244.156 55.6478 243.362 55.3179 242.776 54.7313C242.19 54.1446 241.86 53.3493 241.859 52.5197Z" fill="#E6E6E6"/>
<path d="M264.326 39.2209C264.327 38.3913 264.657 37.5959 265.243 37.0093C265.829 36.4227 266.623 36.0927 267.452 36.0918H274.094C274.923 36.0918 275.718 36.4215 276.304 37.0083C276.891 37.5951 277.22 38.391 277.22 39.2209C277.22 40.0508 276.891 40.8467 276.304 41.4335C275.718 42.0203 274.923 42.35 274.094 42.35H267.452C266.623 42.349 265.829 42.019 265.243 41.4324C264.657 40.8458 264.327 40.0505 264.326 39.2209Z" fill="#E6E6E6"/>
<path d="M212.044 147.917H260.664C262.425 147.915 264.113 147.213 265.358 145.967C266.603 144.72 267.304 143.03 267.306 141.267V64.2763C267.304 62.5134 266.603 60.8232 265.358 59.5767C264.113 58.3301 262.425 57.6289 260.664 57.627H183C181.239 57.6289 179.55 58.3301 178.305 59.5767C177.06 60.8232 176.359 62.5134 176.357 64.2763V83.3588H177.139V64.2763C177.141 62.7208 177.759 61.2295 178.857 60.1296C179.956 59.0297 181.446 58.411 183 58.4092H260.664C262.217 58.411 263.707 59.0297 264.806 60.1296C265.905 61.2295 266.523 62.7208 266.524 64.2763V141.267C266.523 142.823 265.905 144.314 264.806 145.414C263.707 146.514 262.217 147.133 260.664 147.134H212.044V147.917Z" fill="#CCCCCC"/>
<path d="M266.917 101.825H302.359C304.12 101.823 305.808 101.122 307.053 99.8754C308.298 98.6288 308.999 96.9387 309.001 95.1758V32.5712C308.999 30.8083 308.298 29.1182 307.053 27.8716C305.808 26.625 304.12 25.9239 302.359 25.9219H239.187C237.426 25.9239 235.738 26.625 234.493 27.8716C233.247 29.1182 232.547 30.8083 232.545 32.5712V58.0164H233.326V32.5712C233.328 31.0157 233.946 29.5244 235.045 28.4245C236.144 27.3246 237.633 26.7059 239.187 26.7041H302.359C303.912 26.7059 305.402 27.3246 306.501 28.4245C307.6 29.5244 308.218 31.0157 308.219 32.5712V95.1758C308.218 96.7313 307.6 98.2226 306.501 99.3225C305.402 100.422 303.912 101.041 302.359 101.043H266.917V101.825Z" fill="#CCCCCC"/>
<path d="M205.627 83.2285H111.949C110.188 83.232 108.501 83.9337 107.256 85.1799C106.011 86.4261 105.31 88.1154 105.307 89.8778V182.769C105.308 184.532 106.009 186.222 107.254 187.468C108.499 188.715 110.188 189.416 111.949 189.418H205.627C207.388 189.416 209.076 188.715 210.321 187.468C211.567 186.222 212.267 184.532 212.269 182.769V89.8778C212.267 88.1149 211.567 86.4247 210.321 85.1781C209.076 83.9315 207.388 83.2304 205.627 83.2285ZM211.488 182.769C211.486 184.324 210.868 185.815 209.769 186.915C208.67 188.015 207.181 188.634 205.627 188.636H111.949C110.395 188.634 108.905 188.015 107.807 186.915C106.708 185.815 106.09 184.324 106.088 182.769V89.8778C106.09 88.3225 106.709 86.8316 107.807 85.7319C108.906 84.6321 110.395 84.0132 111.949 84.0108H205.627C207.181 84.0127 208.67 84.6314 209.769 85.7313C210.868 86.8312 211.486 88.3224 211.488 89.8778V182.769Z" fill="#3F3D56"/>
<path d="M198.25 119.405H119.325C118.496 119.405 117.701 119.075 117.115 118.488C116.529 117.901 116.199 117.105 116.199 116.276C116.199 115.446 116.529 114.65 117.115 114.063C117.701 113.476 118.496 113.146 119.325 113.146H198.25C199.079 113.146 199.874 113.476 200.46 114.063C201.046 114.65 201.375 115.446 201.375 116.276C201.375 117.105 201.046 117.901 200.46 118.488C199.874 119.075 199.079 119.405 198.25 119.405Z" fill="#CCCCCC"/>
<path d="M175.784 106.106H141.792C140.963 106.106 140.168 105.776 139.582 105.189C138.995 104.603 138.666 103.807 138.666 102.977C138.666 102.147 138.995 101.351 139.582 100.764C140.168 100.177 140.963 99.8477 141.792 99.8477H175.784C176.613 99.8477 177.408 100.177 177.994 100.764C178.58 101.351 178.91 102.147 178.91 102.977C178.91 103.807 178.58 104.603 177.994 105.189C177.408 105.776 176.613 106.106 175.784 106.106Z" fill="#6C63FF"/>
<path d="M153.122 138.178H119.13C118.301 138.178 117.506 137.848 116.919 137.262C116.333 136.675 116.004 135.879 116.004 135.049C116.004 134.219 116.333 133.423 116.919 132.836C117.506 132.25 118.301 131.92 119.13 131.92H153.122C153.951 131.92 154.746 132.25 155.332 132.836C155.918 133.423 156.248 134.219 156.248 135.049C156.248 135.879 155.918 136.675 155.332 137.262C154.746 137.848 153.951 138.178 153.122 138.178Z" fill="#CCCCCC"/>
<path d="M153.122 151.87H119.13C118.301 151.87 117.506 151.54 116.919 150.953C116.333 150.366 116.004 149.57 116.004 148.74C116.004 147.911 116.333 147.115 116.919 146.528C117.506 145.941 118.301 145.611 119.13 145.611H153.122C153.951 145.611 154.746 145.941 155.332 146.528C155.918 147.115 156.248 147.911 156.248 148.74C156.248 149.57 155.918 150.366 155.332 150.953C154.746 151.54 153.951 151.87 153.122 151.87Z" fill="#CCCCCC"/>
<path d="M153.122 165.559H119.13C118.301 165.559 117.506 165.229 116.919 164.642C116.333 164.056 116.004 163.26 116.004 162.43C116.004 161.6 116.333 160.804 116.919 160.217C117.506 159.63 118.301 159.301 119.13 159.301H153.122C153.951 159.301 154.746 159.63 155.332 160.217C155.918 160.804 156.248 161.6 156.248 162.43C156.248 163.26 155.918 164.056 155.332 164.642C154.746 165.229 153.951 165.559 153.122 165.559Z" fill="#CCCCCC"/>
<path d="M195.519 140.862C198.74 140.862 201.352 138.248 201.352 135.023C201.352 131.798 198.74 129.184 195.519 129.184C192.297 129.184 189.686 131.798 189.686 135.023C189.686 138.248 192.297 140.862 195.519 140.862Z" fill="#6C63FF"/>
<path d="M194.939 137.25C194.808 137.25 194.68 137.207 194.575 137.129L194.568 137.124L193.198 136.074C193.069 135.976 192.985 135.83 192.964 135.67C192.943 135.509 192.986 135.347 193.085 135.219C193.183 135.091 193.328 135.007 193.488 134.985C193.649 134.964 193.811 135.008 193.939 135.106L194.827 135.788L196.925 133.047C196.974 132.984 197.034 132.93 197.104 132.89C197.173 132.85 197.249 132.824 197.328 132.814C197.408 132.803 197.488 132.809 197.566 132.829C197.643 132.85 197.715 132.886 197.779 132.934L197.779 132.935L197.766 132.953L197.779 132.935C197.907 133.033 197.991 133.178 198.012 133.339C198.033 133.499 197.99 133.661 197.892 133.789L195.424 137.011C195.367 137.085 195.293 137.145 195.209 137.187C195.125 137.228 195.033 137.249 194.939 137.249L194.939 137.25Z" fill="white"/>
<path d="M46.9687 18.1523C45.1756 18.1523 43.4227 17.62 41.9317 16.6227C40.4407 15.6254 39.2787 14.2079 38.5925 12.5494C37.9063 10.891 37.7267 9.06604 38.0766 7.30545C38.4264 5.54485 39.2899 3.92764 40.5579 2.65833C41.8258 1.38901 43.4413 0.524598 45.2 0.174397C46.9587 -0.175804 48.7817 0.00393369 50.4383 0.690887C52.095 1.37784 53.511 2.54115 54.5072 4.03372C55.5034 5.52628 56.0352 7.28106 56.0352 9.07615C56.0324 11.4825 55.0763 13.7894 53.3766 15.4909C51.6769 17.1925 49.3724 18.1496 46.9687 18.1523ZM46.9687 0.782276C45.3301 0.782285 43.7283 1.26872 42.3658 2.18007C41.0034 3.09142 39.9415 4.38674 39.3144 5.90225C38.6874 7.41776 38.5233 9.08538 38.843 10.6942C39.1627 12.3031 39.9517 13.7809 41.1104 14.9408C42.2691 16.1007 43.7453 16.8906 45.3525 17.2107C46.9596 17.5307 48.6254 17.3664 50.1393 16.7387C51.6532 16.1109 52.9471 15.0479 53.8575 13.684C54.7678 12.32 55.2537 10.7165 55.2537 9.07615C55.2513 6.87723 54.3776 4.76909 52.8244 3.21422C51.2712 1.65936 49.1653 0.784751 46.9687 0.782276Z" fill="#CCCCCC"/>
<path d="M46.1088 12.3886C45.9136 12.3889 45.7236 12.3257 45.5675 12.2085L45.5578 12.2012L43.5189 10.6399C43.4244 10.5674 43.3452 10.477 43.2857 10.3739C43.2261 10.2707 43.1874 10.1569 43.1719 10.0388C43.1563 9.92071 43.1641 9.8007 43.1948 9.68563C43.2256 9.57056 43.2787 9.46268 43.3511 9.36815C43.4235 9.27362 43.5137 9.19429 43.6168 9.13468C43.7198 9.07508 43.8335 9.03637 43.9515 9.02078C44.0694 9.00518 44.1893 9.01299 44.3043 9.04377C44.4192 9.07455 44.527 9.1277 44.6214 9.20017L45.9421 10.214L49.0628 6.13825C49.1352 6.04375 49.2254 5.96445 49.3284 5.90487C49.4314 5.84529 49.5451 5.8066 49.663 5.79101C49.7809 5.77542 49.9007 5.78323 50.0156 5.814C50.1305 5.84477 50.2383 5.89789 50.3327 5.97034L50.3329 5.97054L50.3135 5.99746L50.3334 5.97054C50.5239 6.11705 50.6485 6.33321 50.6799 6.57158C50.7113 6.80995 50.6469 7.05105 50.501 7.24198L46.8303 12.0338C46.7454 12.1442 46.6362 12.2336 46.5112 12.2949C46.3862 12.3562 46.2488 12.3879 46.1096 12.3875L46.1088 12.3886Z" fill="#CCCCCC"/>
<path d="M104.48 49.8339C102.687 49.8339 100.934 49.3016 99.4434 48.3043C97.9524 47.307 96.7904 45.8895 96.1042 44.231C95.418 42.5726 95.2384 40.7477 95.5883 38.9871C95.9381 37.2265 96.8016 35.6093 98.0696 34.34C99.3376 33.0706 100.953 32.2062 102.712 31.856C104.47 31.5058 106.293 31.6856 107.95 32.3725C109.607 33.0595 111.023 34.2228 112.019 35.7154C113.015 37.2079 113.547 38.9627 113.547 40.7578C113.544 43.1641 112.588 45.4711 110.888 47.1726C109.189 48.8741 106.884 49.8312 104.48 49.8339ZM104.48 32.4639C102.842 32.4639 101.24 32.9504 99.8775 33.8617C98.5151 34.7731 97.4532 36.0684 96.8261 37.5839C96.1991 39.0994 96.035 40.767 96.3547 42.3759C96.6744 43.9847 97.4635 45.4626 98.6221 46.6225C99.7808 47.7824 101.257 48.5723 102.864 48.8923C104.471 49.2123 106.137 49.0481 107.651 48.4203C109.165 47.7926 110.459 46.7295 111.369 45.3656C112.28 44.0017 112.765 42.3982 112.765 40.7578C112.763 38.5589 111.889 36.4507 110.336 34.8958C108.783 33.341 106.677 32.4664 104.48 32.4639Z" fill="#CCCCCC"/>
<path d="M103.621 44.0703C103.425 44.0706 103.235 44.0074 103.079 43.8902L103.069 43.8829L101.031 42.3215C100.84 42.1751 100.715 41.9589 100.684 41.7204C100.652 41.4819 100.717 41.2407 100.863 41.0498C101.009 40.8589 101.225 40.7339 101.463 40.7024C101.701 40.6709 101.942 40.7354 102.133 40.8818L103.454 41.8956L106.575 37.8199C106.647 37.7254 106.737 37.6461 106.84 37.5865C106.943 37.5269 107.057 37.4882 107.175 37.4727C107.293 37.4571 107.412 37.4649 107.527 37.4956C107.642 37.5264 107.75 37.5795 107.844 37.652L107.845 37.6522L107.825 37.6791L107.845 37.6522C108.036 37.7987 108.16 38.0148 108.192 38.2532C108.223 38.4916 108.159 38.7327 108.013 38.9236L104.342 43.7155C104.257 43.8259 104.148 43.9152 104.023 43.9765C103.898 44.0379 103.76 44.0696 103.621 44.0692L103.621 44.0703Z" fill="#CCCCCC"/>
<path d="M195.519 154.552C198.74 154.552 201.352 151.937 201.352 148.712C201.352 145.487 198.74 142.873 195.519 142.873C192.297 142.873 189.686 145.487 189.686 148.712C189.686 151.937 192.297 154.552 195.519 154.552Z" fill="#6C63FF"/>
<path d="M194.939 150.939C194.808 150.939 194.68 150.897 194.575 150.818L194.568 150.813L193.198 149.763C193.134 149.715 193.081 149.654 193.041 149.585C193.001 149.515 192.975 149.439 192.964 149.359C192.954 149.28 192.959 149.199 192.98 149.122C193 149.044 193.036 148.972 193.085 148.908C193.133 148.845 193.194 148.791 193.263 148.751C193.333 148.711 193.409 148.685 193.488 148.675C193.568 148.664 193.648 148.67 193.726 148.69C193.803 148.711 193.875 148.747 193.939 148.795L194.827 149.477L196.925 146.737C196.974 146.673 197.034 146.62 197.104 146.58C197.173 146.54 197.249 146.514 197.328 146.503C197.408 146.493 197.488 146.498 197.566 146.519C197.643 146.539 197.715 146.575 197.779 146.624L197.779 146.624L197.766 146.642L197.779 146.624C197.907 146.722 197.991 146.868 198.012 147.028C198.033 147.188 197.99 147.35 197.892 147.479L195.424 150.701C195.367 150.775 195.293 150.835 195.209 150.876C195.125 150.917 195.033 150.939 194.939 150.938L194.939 150.939Z" fill="white"/>
<path d="M195.519 168.268C198.74 168.268 201.352 165.654 201.352 162.429C201.352 159.204 198.74 156.59 195.519 156.59C192.297 156.59 189.686 159.204 189.686 162.429C189.686 165.654 192.297 168.268 195.519 168.268Z" fill="#6C63FF"/>
<path d="M194.94 164.658C194.809 164.658 194.681 164.616 194.576 164.537L194.57 164.532L193.199 163.482C193.071 163.384 192.987 163.238 192.966 163.078C192.945 162.918 192.988 162.756 193.087 162.628C193.185 162.499 193.33 162.415 193.49 162.394C193.65 162.373 193.812 162.416 193.94 162.514L194.828 163.196L196.926 160.455C196.975 160.392 197.036 160.339 197.105 160.299C197.174 160.259 197.251 160.233 197.33 160.222C197.409 160.212 197.49 160.217 197.567 160.238C197.644 160.258 197.717 160.294 197.78 160.343L197.78 160.343L197.767 160.361L197.781 160.343C197.909 160.441 197.992 160.587 198.014 160.747C198.035 160.907 197.991 161.069 197.893 161.198L195.425 164.419C195.368 164.494 195.295 164.554 195.211 164.595C195.127 164.636 195.034 164.657 194.941 164.657L194.94 164.658Z" fill="white"/>
<path d="M158.797 75.2577C152.644 75.1527 149.847 70.4789 149.848 66.1808C149.848 61.8827 152.645 57.2096 158.784 57.1055H158.798C164.938 57.2103 167.734 61.8841 167.734 66.1822C167.734 70.4803 164.937 75.1536 158.797 75.2577ZM158.791 57.8877C153.183 57.9859 150.629 62.2548 150.629 66.1808C150.629 70.1086 153.185 74.3796 158.797 74.4755C164.396 74.3804 166.952 70.1098 166.953 66.1822C166.953 62.2561 164.399 57.9872 158.791 57.8877Z" fill="#6C63FF"/>
<path d="M160.825 66.6749C162.394 69.4024 158.088 70.4677 156.441 68.8246L156.854 67.9421C159.532 70.2577 161.891 66.2467 157.801 66.6279V65.661C161.547 65.9634 159.443 62.189 156.948 64.4218L156.544 63.5395C158.578 61.4267 163.143 63.9814 159.92 66.0928C160.28 66.1769 160.599 66.3825 160.825 66.6749Z" fill="#6C63FF"/>
<path d="M213.881 49.8339C212.088 49.8339 210.335 49.3016 208.844 48.3043C207.353 47.307 206.191 45.8895 205.505 44.231C204.818 42.5726 204.639 40.7477 204.989 38.9871C205.339 37.2265 206.202 35.6093 207.47 34.34C208.738 33.0706 210.353 32.2062 212.112 31.856C213.871 31.5058 215.694 31.6856 217.35 32.3725C219.007 33.0595 220.423 34.2228 221.419 35.7154C222.416 37.2079 222.947 38.9627 222.947 40.7578C222.945 43.1641 221.988 45.4711 220.289 47.1726C218.589 48.8741 216.285 49.8312 213.881 49.8339ZM213.881 32.4639C212.242 32.4639 210.64 32.9504 209.278 33.8617C207.915 34.7731 206.854 36.0684 206.227 37.5839C205.599 39.0994 205.435 40.767 205.755 42.3759C206.075 43.9847 206.864 45.4626 208.023 46.6225C209.181 47.7824 210.657 48.5723 212.265 48.8923C213.872 49.2123 215.538 49.0481 217.051 48.4203C218.565 47.7926 219.859 46.7295 220.77 45.3656C221.68 44.0017 222.166 42.3982 222.166 40.7578C222.163 38.5589 221.29 36.4507 219.736 34.8958C218.183 33.341 216.077 32.4664 213.881 32.4639Z" fill="#CCCCCC"/>
<path d="M216.401 42.7949H215.454V44.0997H214.272V42.7949H211.365V41.8936L214.488 37.416H215.454V41.8468H216.401V42.7949ZM214.272 41.8468V39.3027L212.509 41.8468H214.272Z" fill="#CCCCCC"/>
<path d="M270.771 18.1523C268.978 18.1523 267.225 17.6199 265.734 16.6226C264.243 15.6253 263.081 14.2078 262.395 12.5494C261.709 10.8909 261.529 9.06601 261.879 7.30542C262.229 5.54483 263.093 3.92762 264.361 2.65831C265.629 1.389 267.244 0.524589 269.003 0.174392C270.761 -0.175805 272.584 0.00393951 274.241 0.690894C275.898 1.37785 277.314 2.54116 278.31 4.03372C279.306 5.52628 279.838 7.28106 279.838 9.07615C279.835 11.4825 278.879 13.7894 277.179 15.491C275.48 17.1925 273.175 18.1496 270.771 18.1523ZM270.771 0.782277C269.133 0.782296 267.531 1.26874 266.169 2.18009C264.806 3.09145 263.744 4.38678 263.117 5.90229C262.49 7.4178 262.326 9.08541 262.646 10.6943C262.965 12.3031 263.754 13.7809 264.913 14.9408C266.072 16.1007 267.548 16.8906 269.155 17.2107C270.762 17.5307 272.428 17.3664 273.942 16.7387C275.456 16.1109 276.75 15.0479 277.66 13.684C278.571 12.32 279.056 10.7165 279.056 9.07615C279.054 6.87722 278.18 4.76908 276.627 3.21421C275.074 1.65934 272.968 0.784741 270.771 0.782277Z" fill="#CCCCCC"/>
<path d="M272.122 8.37735C272.436 8.55098 272.693 8.81176 272.863 9.1283C273.043 9.47094 273.133 9.85359 273.125 10.2406C273.134 10.6473 273.03 11.0485 272.825 11.4001C272.621 11.7391 272.32 12.0101 271.962 12.1791C271.555 12.3708 271.109 12.4656 270.659 12.456C270.238 12.4556 269.819 12.3842 269.421 12.2448C269.052 12.1253 268.711 11.9321 268.418 11.677L268.821 10.7945C269.345 11.2275 269.999 11.4721 270.678 11.4893C271.027 11.5132 271.372 11.4004 271.639 11.1747C271.855 10.9275 271.974 10.6097 271.972 10.2811C271.97 9.95257 271.848 9.636 271.63 9.3911C271.507 9.27746 271.363 9.18945 271.206 9.13223C271.049 9.07501 270.882 9.04972 270.715 9.05786C270.461 9.0562 270.209 9.10569 269.975 9.20338C269.743 9.30038 269.535 9.44602 269.365 9.63043H268.634V5.69727H272.816V6.63596H269.815V8.45699C270.17 8.22043 270.589 8.09919 271.015 8.10978C271.401 8.10166 271.782 8.19385 272.122 8.37735Z" fill="#CCCCCC"/>
<path d="M57.9013 203.722C57.6641 203.198 57.5446 202.629 57.551 202.054C57.5575 201.479 57.6898 200.912 57.9386 200.394C58.1874 199.876 58.5468 199.418 58.9913 199.054C59.4357 198.69 59.9546 198.428 60.5113 198.286L61.6957 184.359L67.392 188.858L65.394 201.393C65.5698 202.345 65.3908 203.329 64.8907 204.157C64.3906 204.986 63.6043 205.602 62.6807 205.889C61.7572 206.176 60.7605 206.114 59.8796 205.715C58.9987 205.315 58.2948 204.606 57.9013 203.722H57.9013Z" fill="#FFB8B8"/>
<path d="M61.5666 196.826C61.1566 196.772 60.779 196.574 60.5 196.269C60.221 195.963 60.0586 195.569 60.0414 195.155L59.3819 179.351C59.1449 173.67 60.2998 168.018 62.7458 162.887L68.594 150.619C68.9858 149.881 69.5478 149.247 70.2332 148.771C70.9187 148.294 71.7078 147.988 72.5352 147.877C73.3384 147.764 74.1569 147.847 74.9212 148.119C75.6855 148.39 76.3729 148.843 76.9248 149.438C77.2049 149.737 77.4564 150.062 77.6762 150.408C78.1174 151.125 78.3729 151.94 78.4195 152.781C78.466 153.621 78.3021 154.46 77.9427 155.221L68.9753 179.745L68.2853 195.722C68.2749 195.964 68.2146 196.201 68.1082 196.419C68.0019 196.637 67.8518 196.83 67.6674 196.987C67.4829 197.144 67.2681 197.261 67.0364 197.331C66.8047 197.401 66.561 197.422 66.3206 197.394L61.5898 196.829L61.5666 196.826Z" fill="#6C63FF"/>
<path d="M44.7871 265.88L49.1733 267.807L58.6864 251.788L52.2131 248.943L44.7871 265.88Z" fill="#FFB8B8"/>
<path d="M44.2976 263.953L52.9354 267.749L52.9358 267.749C53.6587 268.067 54.312 268.524 54.8584 269.094C55.4049 269.664 55.8337 270.337 56.1205 271.073C56.4072 271.81 56.5463 272.595 56.5298 273.385C56.5132 274.176 56.3414 274.955 56.024 275.678L55.9455 275.857L41.8027 269.643L44.2976 263.953Z" fill="#2F2E41"/>
<path d="M103.673 271.209H108.463L110.741 252.713L103.672 252.713L103.673 271.209Z" fill="#FFB8B8"/>
<path d="M102.451 269.645L111.885 269.645H111.885C112.674 269.645 113.456 269.8 114.186 270.103C114.915 270.405 115.578 270.848 116.136 271.407C116.694 271.966 117.137 272.629 117.439 273.36C117.741 274.09 117.897 274.872 117.897 275.663V275.858L102.451 275.859L102.451 269.645Z" fill="#2F2E41"/>
<path d="M55.428 265.952C55.2437 265.952 55.0607 265.923 54.8854 265.866L46.7634 263.253C46.3247 263.11 45.9595 262.801 45.7458 262.391C45.5321 261.982 45.4869 261.505 45.6199 261.063L72.554 175.202L92.7286 171.242L92.7996 171.358C106.137 193.085 110.59 226.274 113.414 261.439C113.448 261.899 113.303 262.353 113.008 262.707C112.714 263.06 112.293 263.285 111.835 263.333L102.956 264.222C102.542 264.266 102.125 264.16 101.782 263.923C101.439 263.687 101.192 263.335 101.084 262.932L84.8258 205.354C84.7939 205.237 84.7263 205.132 84.6324 205.055C84.5385 204.978 84.4229 204.932 84.3017 204.923C84.1804 204.914 84.0595 204.944 83.9556 205.007C83.8518 205.07 83.7701 205.164 83.722 205.276L57.038 264.888C56.9032 265.204 56.6788 265.473 56.3926 265.662C56.1064 265.851 55.771 265.952 55.428 265.952Z" fill="#2F2E41"/>
<path d="M82.9773 140.821C88.2772 140.821 92.5736 136.52 92.5736 131.214C92.5736 125.908 88.2772 121.607 82.9773 121.607C77.6773 121.607 73.3809 125.908 73.3809 131.214C73.3809 136.52 77.6773 140.821 82.9773 140.821Z" fill="#FFB8B8"/>
<path d="M70.8368 177.744L70.771 177.606C70.7264 177.513 66.3051 168.123 66.7165 157.293C66.8527 153.738 68.3408 150.37 70.8762 147.877C73.4116 145.384 76.8027 143.956 80.3557 143.884C83.6301 143.819 86.8221 144.914 89.3696 146.975C91.917 149.035 93.6563 151.929 94.2813 155.148C95.5135 161.445 95.4827 167.409 94.1897 172.873L94.1609 172.995L94.0385 173.02L70.8368 177.744Z" fill="#6C63FF"/>
<path d="M119.763 191.297C119.195 191.213 118.652 191.005 118.172 190.688C117.693 190.371 117.289 189.953 116.988 189.463C116.688 188.973 116.499 188.423 116.434 187.852C116.369 187.28 116.429 186.702 116.612 186.157L105.559 177.617L112.421 175.26L121.866 183.731C122.76 184.098 123.489 184.781 123.914 185.651C124.339 186.521 124.431 187.516 124.171 188.449C123.912 189.381 123.32 190.187 122.508 190.711C121.695 191.236 120.718 191.445 119.763 191.297H119.763Z" fill="#FFB8B8"/>
<path d="M92.6384 172.471L92.6128 172.429L80.9604 153.538C80.553 152.809 80.3253 151.993 80.2962 151.158C80.267 150.323 80.4373 149.493 80.7928 148.737C81.1325 148 81.6453 147.356 82.2874 146.86C82.9296 146.363 83.682 146.03 84.4806 145.888C84.8836 145.814 85.2925 145.779 85.7022 145.781C86.5429 145.798 87.3661 146.025 88.0971 146.441C88.8281 146.857 89.4437 147.449 89.888 148.163L105.625 168.993L118.667 178.226C118.865 178.366 119.032 178.545 119.157 178.753C119.282 178.96 119.363 179.191 119.395 179.431C119.427 179.672 119.409 179.916 119.342 180.149C119.276 180.382 119.162 180.598 119.007 180.785L115.971 184.46C115.705 184.784 115.333 185.001 114.922 185.074C114.51 185.147 114.086 185.069 113.726 184.857L92.6384 172.471Z" fill="#6C63FF"/>
<path d="M81.2607 130.617C81.9679 129.452 83.5288 129.123 84.8838 129.256C86.2389 129.389 87.5567 129.866 88.9183 129.855C92.6989 129.826 95.6172 125.213 94.0277 121.779C92.7241 118.963 89.4685 117.726 86.5234 116.755C80.3484 114.72 73.2553 112.765 67.6519 116.065C65.8662 117.147 64.4017 118.688 63.4095 120.526C62.4173 122.365 61.9335 124.436 62.0081 126.524C62.1341 129.121 63.1275 131.788 62.2873 134.248C61.318 137.086 58.2447 138.609 55.3404 139.346C50.2491 140.637 44.881 140.429 39.7579 141.587C34.6348 142.745 29.385 145.82 28.004 150.893C27.0969 154.225 28.0434 157.812 29.6109 160.888C31.2101 164.027 33.4326 166.806 36.1421 169.055C38.8517 171.304 41.9913 172.975 45.3687 173.967C48.7461 174.959 52.2902 175.25 55.7839 174.822C59.2776 174.395 62.6474 173.258 65.6869 171.481C71.8804 167.861 76.3518 161.742 79.0177 155.077C80.5292 151.189 81.5932 147.141 82.1893 143.012C82.7864 139.146 82.2798 135.24 81.1983 131.482C81.1472 131.341 81.1263 131.192 81.1371 131.043C81.1478 130.893 81.1899 130.748 81.2607 130.617Z" fill="#2F2E41"/>
<path d="M149.254 276.001H0.390716C0.287092 276.001 0.187711 275.96 0.114438 275.886C0.0411643 275.813 0 275.714 0 275.61C0 275.506 0.0411643 275.407 0.114438 275.333C0.187711 275.26 0.287092 275.219 0.390716 275.219H149.254C149.357 275.219 149.457 275.26 149.53 275.333C149.603 275.407 149.644 275.506 149.644 275.61C149.644 275.714 149.603 275.813 149.53 275.886C149.457 275.96 149.357 276.001 149.254 276.001Z" fill="#3F3D56"/>
</g>
<defs>
<clipPath id="clip0_15855_186137">
<rect width="309" height="276" fill="white"/>
</clipPath>
</defs>
</svg>
