<svg width="20" height="20" viewBox="0 0 20 20" fill="none" xmlns="http://www.w3.org/2000/svg">
<path fill-rule="evenodd" clip-rule="evenodd" d="M11.7688 10.0002L19.6335 2.13513C20.1222 1.6469 20.1222 0.854719 19.6335 0.366487C19.1449 -0.122162 18.3536 -0.122162 17.865 0.366487L10.0002 8.23157L2.13504 0.366487C1.64641 -0.122162 0.8551 -0.122162 0.366471 0.366487C-0.122157 0.854719 -0.122157 1.6469 0.366471 2.13513L8.23164 10.0002L0.366471 17.8653C-0.122157 18.3535 -0.122157 19.1457 0.366471 19.6339C0.610786 19.8778 0.930979 20 1.25076 20C1.57053 20 1.89073 19.8778 2.13504 19.6335L10.0002 11.7684L17.865 19.6335C18.1093 19.8778 18.4295 20 18.7492 20C19.069 20 19.3892 19.8778 19.6335 19.6335C20.1222 19.1453 20.1222 18.3531 19.6335 17.8649L11.7688 10.0002Z" fill="black"/>
</svg>
