<svg width="23" height="24" viewBox="0 0 23 24" fill="none" xmlns="http://www.w3.org/2000/svg">
<path d="M16.6216 14.8464C16.7382 14.6277 16.9104 14.4437 17.1208 14.3127C17.3312 14.1818 17.5724 14.1086 17.82 14.1006L18.3794 12H9.56543C9.53078 12.0638 9.49358 12.1267 9.45382 12.1888L9.20996 12.5858L16.6216 14.8464Z" fill="#2D417D"/>
<path d="M18.56 9.89766C18.5604 9.52648 18.708 9.17063 18.9705 8.90817C19.2329 8.64571 19.5888 8.49807 19.96 8.49766V4.64766C19.6497 4.64726 19.3483 4.54398 19.1029 4.35398C18.8576 4.16398 18.6822 3.89799 18.6042 3.59766H6.96569C6.90268 3.8396 6.77625 4.06036 6.59946 4.23714C6.42267 4.41392 6.20191 4.54034 5.95996 4.60334V8.54198C6.30935 8.63289 6.61033 8.85481 6.80049 9.16169L7.78665 7.92891C7.84259 7.85896 7.9232 7.81312 8.01191 7.80082C8.10062 7.78851 8.19067 7.81068 8.26353 7.86276L8.67946 8.15986C9.26683 8.578 9.68178 9.19577 9.84671 9.89766H18.56ZM17.16 4.99766H19.26V5.69766H17.16V4.99766ZM12.96 4.29766C13.4445 4.29766 13.9182 4.44135 14.3211 4.71056C14.724 4.97976 15.038 5.3624 15.2235 5.81008C15.4089 6.25776 15.4574 6.75037 15.3629 7.22563C15.2684 7.70088 15.035 8.13743 14.6924 8.48007C14.3497 8.82271 13.9132 9.05605 13.4379 9.15058C12.9627 9.24511 12.4701 9.1966 12.0224 9.01116C11.5747 8.82573 11.1921 8.5117 10.9229 8.1088C10.6537 7.7059 10.51 7.23222 10.51 6.74766C10.5107 6.0981 10.769 5.47536 11.2284 5.01605C11.6877 4.55674 12.3104 4.29839 12.96 4.29766Z" fill="#2D417D"/>
<path d="M12.96 8.5C13.9265 8.5 14.71 7.7165 14.71 6.75C14.71 5.7835 13.9265 5 12.96 5C11.9935 5 11.21 5.7835 11.21 6.75C11.21 7.7165 11.9935 8.5 12.96 8.5Z" fill="#2D417D"/>
<path d="M8.25035 15.8494L7.78717 14.9023L7.35986 15.598V17.481C7.6729 17.8185 8.08032 18.0539 8.52907 18.1566C8.97781 18.2593 9.44708 18.2245 9.87575 18.0567L9.41043 17.1052C8.90842 16.8101 8.50482 16.3732 8.25035 15.8494Z" fill="#2D417D"/>
<path d="M18.4218 14.5641C18.3987 14.6512 18.3429 14.7259 18.2661 14.7729C18.1893 14.8198 18.0973 14.8353 18.0094 14.8161C17.9195 14.7965 17.8267 14.7948 17.7362 14.811C17.6457 14.8273 17.5593 14.8612 17.4819 14.9109C17.4045 14.9605 17.3376 15.0249 17.2851 15.1004C17.2327 15.1759 17.1956 15.2611 17.176 15.3509C17.1657 15.3982 17.1458 15.4429 17.1174 15.4821C17.089 15.5213 17.0528 15.5542 17.0111 15.5787C16.9693 15.6032 16.9229 15.6188 16.8749 15.6244C16.8268 15.6301 16.7781 15.6257 16.7318 15.6116L8.83215 13.2022L8.354 13.9806L18.4243 16.8153C18.4353 16.8185 18.4469 16.8194 18.4583 16.818C18.4697 16.8167 18.4808 16.8131 18.4908 16.8075C18.5008 16.8019 18.5096 16.7943 18.5168 16.7853C18.5239 16.7763 18.5291 16.7659 18.5323 16.7549L19.8708 12H19.1046L18.4218 14.5641Z" fill="#2D417D"/>
<path d="M4.99695 2.19922C4.88092 2.19922 4.76964 2.24531 4.68759 2.32736C4.60555 2.40941 4.55945 2.52069 4.55945 2.63672V3.94922H4.5332V11.2117C4.5332 11.2349 4.54242 11.2572 4.55883 11.2736C4.57524 11.29 4.5975 11.2992 4.6207 11.2992H5.09145L6.3007 9.78757C6.27417 9.62463 6.19098 9.47628 6.0658 9.36866C5.94063 9.26103 5.78148 9.20103 5.61641 9.19922C5.52268 9.20008 5.43244 9.16371 5.36551 9.09808C5.29858 9.03245 5.26043 8.94295 5.25945 8.84922V4.29922C5.25927 4.25342 5.26812 4.20803 5.28549 4.16565C5.30286 4.12328 5.3284 4.08473 5.36067 4.05223C5.39294 4.01973 5.43129 3.9939 5.47354 3.97623C5.5158 3.95855 5.56112 3.94937 5.60692 3.94922C5.69924 3.94945 5.7907 3.93144 5.87604 3.89621C5.96138 3.86099 6.03892 3.80925 6.1042 3.74396C6.16948 3.67868 6.22122 3.60114 6.25645 3.5158C6.29167 3.43046 6.30968 3.339 6.30945 3.24668C6.30961 3.20088 6.31878 3.15556 6.33646 3.11331C6.35414 3.07106 6.37996 3.0327 6.41246 3.00044C6.44497 2.96817 6.48351 2.94262 6.52589 2.92525C6.56827 2.90789 6.61365 2.89904 6.65945 2.89922H18.9072C18.9996 2.89826 19.0886 2.93403 19.1547 2.99867C19.2207 3.0633 19.2584 3.15152 19.2594 3.24392C19.2586 3.35615 19.2848 3.46692 19.3357 3.56691C19.3867 3.6669 19.4609 3.75318 19.5522 3.81846C19.6435 3.88374 19.7491 3.92613 19.8602 3.94203C19.9713 3.95793 20.0846 3.94689 20.1905 3.90984C20.2434 3.89064 20.3001 3.88448 20.3559 3.89188C20.4116 3.89928 20.4648 3.92003 20.5108 3.95236C20.5568 3.98469 20.5944 4.02765 20.6203 4.0776C20.6461 4.12754 20.6596 4.18299 20.6594 4.23924V8.89988C20.6607 8.97848 20.6364 9.05536 20.59 9.11885C20.5452 9.17859 20.4826 9.22248 20.4111 9.24412C20.3397 9.26577 20.2632 9.26405 20.1928 9.23921C20.0684 9.19526 19.9342 9.18736 19.8055 9.21641C19.6768 9.24546 19.5589 9.31029 19.4655 9.40341C19.3721 9.49654 19.3068 9.61417 19.2773 9.74276C19.2479 9.87134 19.2553 10.0056 19.2988 10.1302C19.318 10.183 19.3242 10.2398 19.3168 10.2956C19.3094 10.3513 19.2887 10.4045 19.2564 10.4505C19.224 10.4966 19.1811 10.5341 19.1311 10.56C19.0812 10.5859 19.0257 10.5993 18.9694 10.5992H9.92574C9.92454 10.8352 9.89517 11.0702 9.83824 11.2992H20.9219C21.038 11.2992 21.1493 11.2531 21.2313 11.1711C21.3134 11.089 21.3594 10.9777 21.3594 10.8617V2.63672C21.3594 2.52069 21.3134 2.40941 21.2313 2.32736C21.1493 2.24531 21.038 2.19922 20.9219 2.19922H4.99695Z" fill="#2D417D"/>
<path d="M8.48975 14.7461L8.87947 15.5429C9.13131 16.0577 9.56812 16.4585 10.1026 16.6652C10.6371 16.8719 11.2299 16.8693 11.7626 16.6579L11.2008 15.5092L8.48975 14.7461Z" fill="#2D417D"/>
<path d="M8.86343 11.8141C9.17983 11.3229 9.29491 10.7288 9.18478 10.155C9.07466 9.58117 8.74778 9.07181 8.27201 8.73266L8.1258 8.62818L5.53283 11.8695C5.50003 11.9105 5.45843 11.9436 5.41112 11.9663C5.36381 11.989 5.312 12.0008 5.25952 12.0008H4.62077C4.41199 12.0005 4.21182 11.9175 4.06419 11.7699C3.91656 11.6222 3.83351 11.4221 3.83327 11.2133V4.30078H3.52702C3.40573 4.30106 3.28825 4.34322 3.19445 4.42012C3.10065 4.49702 3.03627 4.60395 3.01221 4.72284L1.76709 10.9485L2.80191 15.7776C2.80701 15.8016 2.80956 15.8262 2.80952 15.8508V21.8008H6.65952V15.5008C6.65953 15.4361 6.67744 15.3727 6.71128 15.3176L8.8594 11.8202C8.86085 11.8182 8.86211 11.8162 8.86343 11.8141Z" fill="#2D417D"/>
</svg>
