<svg width="40" height="40" viewBox="0 0 40 40" fill="none" xmlns="http://www.w3.org/2000/svg">
<path d="M21.666 13.3327C21.666 9.64935 18.6827 6.66602 14.9993 6.66602C11.316 6.66602 8.33268 9.64935 8.33268 13.3327C8.33268 17.016 11.316 19.9993 14.9993 19.9993C18.6827 19.9993 21.666 17.016 21.666 13.3327ZM18.3327 13.3327C18.3327 15.166 16.8327 16.666 14.9993 16.666C13.166 16.666 11.666 15.166 11.666 13.3327C11.666 11.4993 13.166 9.99935 14.9993 9.99935C16.8327 9.99935 18.3327 11.4993 18.3327 13.3327ZM1.66602 29.9993V33.3327H28.3327V29.9993C28.3327 25.566 19.4493 23.3327 14.9993 23.3327C10.5493 23.3327 1.66602 25.566 1.66602 29.9993ZM4.99935 29.9993C5.33268 28.816 10.4993 26.666 14.9993 26.666C19.4827 26.666 24.6327 28.7993 24.9993 29.9993H4.99935ZM33.3327 24.9993V19.9993H38.3327V16.666H33.3327V11.666H29.9993V16.666H24.9993V19.9993H29.9993V24.9993H33.3327Z" fill="#1F53D7"/>
</svg>
