<svg width="100" height="100" viewBox="0 0 100 100" fill="none" xmlns="http://www.w3.org/2000/svg">
<path d="M91.233 43.5125C89.7507 43.5104 88.3128 44.018 87.1604 44.9503C86.008 45.8826 85.2112 47.1828 84.9037 48.6328H76.2414C75.9269 42.5782 73.5182 36.8211 69.4273 32.3465L75.5691 26.2154C76.8917 27.0909 78.4912 27.4465 80.06 27.2138C81.6289 26.9811 83.0564 26.1766 84.0679 24.955C85.0794 23.7334 85.6036 22.181 85.5396 20.5962C85.4756 19.0115 84.8279 17.5064 83.7212 16.3703C82.6144 15.2342 81.1268 14.5475 79.5442 14.4421C77.9617 14.3367 76.3961 14.8201 75.1485 15.7994C73.9008 16.7786 73.0593 18.1846 72.7857 19.7468C72.5121 21.3091 72.8258 22.9174 73.6664 24.2623L67.4834 30.4453C62.9782 26.4097 57.2142 24.0591 51.1717 23.7934V15.1246C52.7403 14.8348 54.1464 13.9753 55.1194 12.7112C56.0925 11.4472 56.5637 9.86795 56.4425 8.27738C56.3213 6.6868 55.6162 5.19723 54.4629 4.09521C53.3096 2.99319 51.7895 2.35657 50.195 2.30783C48.6006 2.25909 47.0444 2.80166 45.826 3.83117C44.6075 4.86068 43.8127 6.3044 43.5946 7.8846C43.3764 9.46479 43.7503 11.0698 44.6443 12.391C45.5383 13.7121 46.8893 14.656 48.4373 15.041V23.8137C42.4516 24.1662 36.7684 26.563 32.3379 30.6031L26.2008 24.4662C27.0937 23.1449 27.4666 21.5401 27.2476 19.9605C27.0286 18.3808 26.2332 16.938 25.0145 15.9095C23.7957 14.8809 22.2397 14.3394 20.6457 14.3891C19.0517 14.4387 17.5324 15.0761 16.3801 16.1784C15.2277 17.2808 14.5236 18.7704 14.4034 20.3606C14.2831 21.9508 14.7551 23.5293 15.7286 24.7924C16.7021 26.0556 18.1083 26.9141 19.6767 27.2029C21.2451 27.4917 22.8648 27.1904 24.2244 26.3568L30.4135 32.5246C26.3718 37.0238 24.0167 42.7861 23.7498 48.8281H15.132C14.847 47.3438 14.0575 46.0038 12.8974 45.035C11.7373 44.0662 10.2779 43.5283 8.76659 43.5125C7.91481 43.5078 7.07051 43.6715 6.28223 43.9943C5.49394 44.317 4.77722 44.7923 4.17327 45.393C3.56931 45.9936 3.09003 46.7077 2.76299 47.4942C2.43594 48.2807 2.26758 49.1241 2.26758 49.9759C2.26758 50.8277 2.43594 51.6711 2.76299 52.4576C3.09003 53.244 3.56931 53.9581 4.17327 54.5588C4.77722 55.1594 5.49394 55.6348 6.28223 55.9575C7.07051 56.2802 7.91481 56.4439 8.76659 56.4393C10.2098 56.4605 11.6172 55.9889 12.7561 55.1022C13.8951 54.2155 14.6975 52.9669 15.0308 51.5625H23.7705C24.1053 57.5437 26.4933 63.2264 30.5314 67.6514L24.4305 73.7631C23.0959 72.8657 21.4766 72.4937 19.8842 72.7188C18.2918 72.9438 16.839 73.75 15.8054 74.982C14.7718 76.2141 14.2305 77.785 14.2857 79.3922C14.3409 80.9995 14.9887 82.5295 16.1045 83.6877C17.2202 84.8459 18.7249 85.5505 20.329 85.6657C21.9331 85.7809 23.5231 85.2987 24.7929 84.3118C26.0627 83.325 26.9225 81.9033 27.2069 80.3204C27.4913 78.7375 27.1801 77.1054 26.3332 75.7383L32.4707 69.6008C36.9322 73.616 42.6383 75.9757 48.6326 76.2846V84.9139C47.0728 85.2513 45.6929 86.1536 44.7584 87.4472C43.8239 88.7409 43.4007 90.3344 43.5704 91.9212C43.7401 93.508 44.4906 94.976 45.6775 96.0428C46.8644 97.1096 48.4039 97.6997 49.9998 97.6997C51.5956 97.6997 53.1351 97.1096 54.3221 96.0428C55.509 94.976 56.2595 93.508 56.4291 91.9212C56.5988 90.3344 56.1757 88.7409 55.2412 87.4472C54.3067 86.1536 52.9268 85.2513 51.367 84.9139V76.2846C57.4137 75.9733 63.1656 73.5754 67.643 69.4994L73.7498 75.6065C72.8731 76.9407 72.5207 78.552 72.7606 80.1303C73.0004 81.7087 73.8154 83.1426 75.0489 84.1562C76.2824 85.1697 77.8471 85.6913 79.442 85.6206C81.0369 85.5499 82.5493 84.8919 83.6883 83.7731C84.8272 82.6544 85.5122 81.154 85.6114 79.5606C85.7106 77.9672 85.217 76.3934 84.2257 75.142C83.2343 73.8906 81.8152 73.0501 80.2414 72.782C78.6676 72.514 77.0502 72.8375 75.7006 73.6902L69.5701 67.5371C73.589 63.0758 75.9454 57.3644 76.2414 51.3672H84.9236C85.186 52.5575 85.7795 53.6493 86.6358 54.5167C87.4921 55.3841 88.5761 55.9917 89.7629 56.2695C90.9497 56.5472 92.1908 56.4836 93.3431 56.0862C94.4953 55.6888 95.5117 54.9737 96.2749 54.0234C97.0382 53.0731 97.5172 51.9264 97.6566 50.7155C97.7961 49.5047 97.5903 48.2791 97.0631 47.1802C96.5359 46.0812 95.7087 45.1538 94.677 44.5048C93.6452 43.8559 92.4511 43.5119 91.2322 43.5125H91.233ZM76.5174 18.2053C77.2171 17.5055 78.1662 17.1123 79.1559 17.1123C80.1456 17.1122 81.0947 17.5053 81.7945 18.2051C82.4943 18.9049 82.8875 19.854 82.8875 20.8436C82.8876 21.8333 82.4945 22.7824 81.7947 23.4822C81.4489 23.8321 81.0374 24.1101 80.5838 24.3004C80.1302 24.4906 79.6435 24.5893 79.1516 24.5908C78.6597 24.5922 78.1724 24.4964 77.7177 24.3088C77.2629 24.1213 76.8498 23.8457 76.502 23.4978C76.1541 23.15 75.8785 22.7369 75.6909 22.2822C75.5033 21.8275 75.4075 21.3401 75.4089 20.8483C75.4104 20.3564 75.509 19.8696 75.6993 19.416C75.8895 18.9624 76.1675 18.5509 76.5174 18.2051V18.2053ZM23.4822 23.4822C22.9604 24.0042 22.2954 24.3596 21.5716 24.5037C20.8477 24.6477 20.0973 24.5738 19.4154 24.2914C18.7335 24.009 18.1507 23.5307 17.7406 22.917C17.3306 22.3033 17.1117 21.5818 17.1117 20.8438C17.1117 20.1057 17.3306 19.3842 17.7406 18.7705C18.1507 18.1568 18.7335 17.6785 19.4154 17.3961C20.0973 17.1137 20.8477 17.0398 21.5716 17.1839C22.2954 17.3279 22.9604 17.6833 23.4822 18.2053C23.8288 18.5517 24.1038 18.963 24.2913 19.4158C24.4789 19.8685 24.5755 20.3537 24.5755 20.8438C24.5755 21.3338 24.4789 21.819 24.2913 22.2718C24.1038 22.7245 23.8288 23.1358 23.4822 23.4822ZM8.76659 53.7316C8.02854 53.7316 7.30709 53.5127 6.69345 53.1027C6.07981 52.6926 5.60155 52.1098 5.31914 51.4279C5.03673 50.746 4.96286 49.9957 5.10687 49.2719C5.25087 48.548 5.60629 47.8831 6.12818 47.3613C6.65007 46.8394 7.31498 46.484 8.03885 46.3401C8.76271 46.1961 9.513 46.27 10.1949 46.5524C10.8767 46.8349 11.4595 47.3132 11.8695 47.9268C12.2796 48.5405 12.4984 49.262 12.4984 50C12.4973 50.9894 12.1037 51.9379 11.4041 52.6375C10.7045 53.3371 9.75596 53.7306 8.76659 53.7316ZM23.4822 81.7947C23.1357 82.1413 22.7244 82.4161 22.2717 82.6037C21.8189 82.7912 21.3337 82.8877 20.8437 82.8878C20.3536 82.8878 19.8684 82.7913 19.4157 82.6038C18.9629 82.4163 18.5516 82.1414 18.2051 81.7949C17.8585 81.4484 17.5837 81.0371 17.3961 80.5844C17.2086 80.1317 17.1121 79.6464 17.112 79.1564C17.112 78.6664 17.2085 78.1811 17.396 77.7284C17.5835 77.2757 17.8584 76.8643 18.2049 76.5178C18.8802 75.8413 19.7898 75.4504 20.7454 75.426C21.701 75.4017 22.6294 75.7458 23.3383 76.3871C23.4368 76.542 23.5661 76.6749 23.7181 76.7777C24.3106 77.4933 24.6147 78.4041 24.5711 79.332C24.5274 80.2599 24.1392 81.1382 23.4822 81.7949V81.7947ZM76.5174 76.5178C77.0392 75.9958 77.7041 75.6404 78.428 75.4964C79.1519 75.3523 79.9022 75.4262 80.5841 75.7086C81.266 75.991 81.8489 76.4693 82.2589 77.083C82.669 77.6967 82.8879 78.4182 82.8879 79.1563C82.8879 79.8943 82.669 80.6158 82.2589 81.2295C81.8489 81.8432 81.266 82.3215 80.5841 82.6039C79.9022 82.8863 79.1519 82.9602 78.428 82.8162C77.7041 82.6721 77.0392 82.3167 76.5174 81.7947C76.1708 81.4483 75.8958 81.037 75.7082 80.5843C75.5207 80.1315 75.4241 79.6463 75.4241 79.1563C75.4241 78.6662 75.5207 78.181 75.7082 77.7283C75.8958 77.2755 76.1708 76.8642 76.5174 76.5178ZM46.2681 8.767C46.2681 8.02895 46.487 7.30748 46.897 6.69381C47.3071 6.08015 47.8899 5.60185 48.5718 5.31941C49.2536 5.03697 50.0039 4.96308 50.7278 5.10706C51.4517 5.25105 52.1166 5.60645 52.6385 6.12833C53.1603 6.65021 53.5157 7.31513 53.6597 8.03899C53.8037 8.76286 53.7298 9.51317 53.4474 10.195C53.1649 10.8769 52.6866 11.4597 52.073 11.8697C51.4593 12.2798 50.7378 12.4986 49.9998 12.4986C49.0105 12.4975 48.062 12.1039 47.3624 11.4044C46.6629 10.7048 46.2693 9.75633 46.2681 8.767ZM53.7314 91.233C53.7322 91.9595 53.5208 92.6704 53.1233 93.2785C52.7258 93.8866 52.1594 94.3655 51.4937 94.6563C50.8279 94.9472 50.0918 95.0373 49.3755 94.9158C48.6593 94.7943 47.994 94.4663 47.4615 93.9721C46.929 93.478 46.5523 92.8391 46.3776 92.1339C46.2029 91.4287 46.2379 90.6879 46.4783 90.0023C46.7186 89.3167 47.1538 88.7161 47.7306 88.2744C48.3073 87.8326 49.0005 87.5687 49.725 87.5152C49.9063 87.5522 50.0933 87.5522 50.2746 87.5152C51.2133 87.5851 52.091 88.0069 52.732 88.6963C53.373 89.3857 53.7299 90.2917 53.7314 91.233ZM49.9998 73.5855C45.3435 73.5855 40.7918 72.2048 36.9202 69.6179C33.0487 67.031 30.0312 63.3542 28.2493 59.0523C26.4674 54.7505 26.0012 50.0169 26.9096 45.4501C27.818 40.8832 30.0602 36.6883 33.3527 33.3959C36.6452 30.1034 40.84 27.8612 45.4069 26.9528C49.9737 26.0444 54.7073 26.5106 59.0091 28.2925C63.311 30.0744 66.9878 33.0919 69.5747 36.9634C72.1616 40.835 73.5424 45.3867 73.5424 50.043C73.5353 56.2847 71.0527 62.2688 66.6391 66.6823C62.2256 71.0959 56.2415 73.5785 49.9998 73.5855ZM91.233 53.7316C90.4949 53.7316 89.7735 53.5128 89.1598 53.1027C88.5461 52.6927 88.0678 52.1099 87.7854 51.428C87.503 50.7462 87.4291 49.9959 87.5731 49.272C87.717 48.5481 88.0724 47.8832 88.5943 47.3613C89.1162 46.8395 89.7811 46.4841 90.505 46.3401C91.2289 46.1961 91.9792 46.27 92.661 46.5524C93.3429 46.8349 93.9257 47.3132 94.3357 47.9268C94.7458 48.5405 94.9646 49.262 94.9646 50C94.9635 50.9894 94.57 51.9378 93.8704 52.6374C93.1708 53.337 92.2223 53.7305 91.233 53.7316Z" fill="black"/>
<path d="M66.3086 39.7946L50.6836 30.7737C50.4758 30.6537 50.24 30.5906 50 30.5906C49.76 30.5906 49.5242 30.6537 49.3164 30.7737L33.6914 39.7946C33.4835 39.9147 33.3109 40.0873 33.1909 40.2951C33.0709 40.503 33.0078 40.7388 33.0078 40.9788V59.021C33.0078 59.261 33.0709 59.4968 33.1909 59.7047C33.3109 59.9126 33.4835 60.0852 33.6914 60.2052L49.3164 69.2261C49.5242 69.3461 49.76 69.4093 50 69.4093C50.24 69.4093 50.4758 69.3461 50.6836 69.2261L66.3086 60.2052C66.5165 60.0852 66.6891 59.9126 66.8091 59.7047C66.9291 59.4968 66.9922 59.261 66.9922 59.021V40.9788C66.9922 40.7388 66.9291 40.503 66.8091 40.2951C66.6891 40.0873 66.5165 39.9147 66.3086 39.7946ZM50 33.5364L54.9238 36.379L42.0342 43.8204L37.1104 40.9777L50 33.5364ZM48.6328 65.6741L35.7422 58.2318V43.3456L48.6328 50.7882V65.6741ZM50 48.42L44.7686 45.3997L57.6582 37.9583L62.8906 40.978L50 48.42ZM64.2578 58.2318L51.3672 65.6741V50.7882L64.2578 43.3456V58.2318Z" fill="black"/>
</svg>
