<svg width="24" height="24" viewBox="0 0 24 24" fill="none" xmlns="http://www.w3.org/2000/svg">
<g clip-path="url(#clip0)">
<path d="M21.4372 10.3529H20.3539V0.705867C20.3539 0.316032 20.0378 -1.52588e-05 19.648 -1.52588e-05H0.965648C0.575813 -1.52588e-05 0.259766 0.316032 0.259766 0.705867V18.7873C0.259766 20.0703 1.30339 21.1256 2.58617 21.1397C2.58875 21.1397 2.59134 21.1397 2.59393 21.1397H2.60005H6.71675V23.2941C6.71675 23.6839 7.0328 24 7.42264 24H23.0362C23.4261 24 23.7421 23.6839 23.7421 23.2941V12.6583C23.7421 11.3871 22.7081 10.3529 21.4372 10.3529ZM1.67153 1.41175H18.9421V10.3529H5.82353C5.8232 10.3529 5.82292 10.3529 5.82264 10.3529H5.81934C4.58 10.3529 3.56842 11.3224 3.51642 12.5599C3.516 12.5698 3.51581 12.5797 3.51581 12.5896V18.7873C3.51581 19.2976 3.10122 19.7188 2.59172 19.7276C2.08348 19.7166 1.67158 19.297 1.67158 18.7873V1.41175H1.67153ZM4.72974 19.728C4.85497 19.4436 4.92753 19.1187 4.92753 18.7873V12.6066C4.95393 12.1347 5.34226 11.7647 5.82353 11.7647C6.31605 11.7647 6.71671 12.1656 6.71671 12.6583V19.728H4.72974ZM22.3304 22.5882H8.12847C8.12847 22.3252 8.12847 12.915 8.12847 12.6583V12.6583C8.12847 12.3476 8.06428 12.0396 7.94828 11.7647C8.39172 11.7647 21.0085 11.7646 21.4372 11.7646C21.9297 11.7646 22.3304 12.1655 22.3304 12.6583V22.5882Z" fill="#878181"/>
<path d="M3.91096 4.80393H4.63011V7.56148C4.63011 7.95132 4.94616 8.26737 5.33599 8.26737C5.72583 8.26737 6.04187 7.95132 6.04187 7.56148V4.80393H6.76102C7.15086 4.80393 7.46691 4.48788 7.46691 4.09804C7.46691 3.70821 7.15086 3.39216 6.76102 3.39216H3.91096C3.52112 3.39216 3.20508 3.70821 3.20508 4.09804C3.20508 4.48788 3.52112 4.80393 3.91096 4.80393Z" fill="#878181"/>
<path d="M8.67659 8.2674C9.06642 8.2674 9.38247 7.95135 9.38247 7.56151V7.15295H10.8208V7.56151C10.8208 7.95135 11.1368 8.2674 11.5267 8.2674C11.9165 8.2674 12.2325 7.95135 12.2325 7.56151V5.52316C12.2325 4.34814 11.2766 3.39223 10.1016 3.39223C8.92661 3.39223 7.9707 4.34814 7.9707 5.52316V7.56151C7.9707 7.95135 8.28675 8.2674 8.67659 8.2674ZM10.1016 4.80395C10.4981 4.80395 10.8208 5.12654 10.8208 5.52311V5.74118H9.38247V5.52311C9.38247 5.12654 9.70506 4.80395 10.1016 4.80395Z" fill="#878181"/>
<path d="M13.4039 8.10655C13.7047 8.35422 14.1497 8.31111 14.3975 8.01003L15.2774 6.94067L16.1574 8.01003C16.4052 8.31116 16.85 8.35417 17.151 8.10655C17.452 7.85883 17.4952 7.41398 17.2475 7.113L16.1915 5.8298L17.2475 4.5466C17.4952 4.24561 17.452 3.80072 17.151 3.55305C16.85 3.30524 16.4051 3.34844 16.1574 3.64956L15.2774 4.71893L14.3975 3.64956C14.1497 3.34858 13.7049 3.30538 13.4039 3.55305C13.1028 3.80072 13.0596 4.24561 13.3074 4.5466L14.3633 5.8298L13.3074 7.113C13.0596 7.41398 13.1028 7.85883 13.4039 8.10655Z" fill="#878181"/>
<path d="M15.2538 14.8235H10.3914C10.0016 14.8235 9.68555 15.1395 9.68555 15.5294C9.68555 15.9192 10.0016 16.2352 10.3914 16.2352H15.2538C15.6437 16.2352 15.9597 15.9192 15.9597 15.5294C15.9597 15.1395 15.6437 14.8235 15.2538 14.8235Z" fill="#878181"/>
<path d="M15.2538 18.2117H10.3914C10.0016 18.2117 9.68555 18.5278 9.68555 18.9176C9.68555 19.3075 10.0016 19.6235 10.3914 19.6235H15.2538C15.6437 19.6235 15.9597 19.3075 15.9597 18.9176C15.9597 18.5278 15.6437 18.2117 15.2538 18.2117Z" fill="#878181"/>
<path d="M20.5414 14.8235H18.1571C17.7672 14.8235 17.4512 15.1395 17.4512 15.5294C17.4512 15.9192 17.7672 16.2352 18.1571 16.2352H20.5414C20.9312 16.2352 21.2473 15.9192 21.2473 15.5294C21.2473 15.1395 20.9312 14.8235 20.5414 14.8235Z" fill="#878181"/>
<path d="M20.5414 18.2117H18.1571C17.7672 18.2117 17.4512 18.5278 17.4512 18.9176C17.4512 19.3075 17.7672 19.6235 18.1571 19.6235H20.5414C20.9312 19.6235 21.2473 19.3075 21.2473 18.9176C21.2473 18.5278 20.9312 18.2117 20.5414 18.2117Z" fill="#878181"/>
</g>
<defs>
<clipPath id="clip0">
<rect width="24" height="24" fill="white"/>
</clipPath>
</defs>
</svg>
