<svg width="38" height="28" viewBox="0 0 38 28" fill="none" xmlns="http://www.w3.org/2000/svg">
<path d="M20.666 7.33268C20.666 3.64935 17.6827 0.666016 13.9993 0.666016C10.316 0.666016 7.33268 3.64935 7.33268 7.33268C7.33268 11.016 10.316 13.9993 13.9993 13.9993C17.6827 13.9993 20.666 11.016 20.666 7.33268ZM17.3327 7.33268C17.3327 9.16601 15.8327 10.666 13.9993 10.666C12.166 10.666 10.666 9.16601 10.666 7.33268C10.666 5.49935 12.166 3.99935 13.9993 3.99935C15.8327 3.99935 17.3327 5.49935 17.3327 7.33268ZM0.666016 23.9993V27.3327H27.3327V23.9993C27.3327 19.566 18.4493 17.3327 13.9993 17.3327C9.54935 17.3327 0.666016 19.566 0.666016 23.9993ZM3.99935 23.9993C4.33268 22.816 9.49935 20.666 13.9993 20.666C18.4827 20.666 23.6327 22.7993 23.9993 23.9993H3.99935ZM32.3327 18.9993V13.9993H37.3327V10.666H32.3327V5.66602H28.9993V10.666H23.9993V13.9993H28.9993V18.9993H32.3327Z" fill="#1F53D7"/>
</svg>
