<svg width="36" height="37" viewBox="0 0 36 37" fill="none" xmlns="http://www.w3.org/2000/svg">
<path d="M18.1185 0.988281C8.32408 0.988281 0.375 8.93736 0.375 18.7318C0.375 28.5262 8.32408 36.4752 18.1185 36.4752C27.9129 36.4752 35.862 28.5262 35.862 18.7318C35.862 8.93736 27.9129 0.988281 18.1185 0.988281ZM18.1185 32.9265C10.2936 32.9265 3.9237 26.5566 3.9237 18.7318C3.9237 10.9069 10.2936 4.53698 18.1185 4.53698C25.9433 4.53698 32.3133 10.9069 32.3133 18.7318C32.3133 26.5566 25.9433 32.9265 18.1185 32.9265ZM26.2627 10.8891L14.5698 22.5821L9.97422 18.0043L7.47239 20.5061L14.5698 27.6035L28.7646 13.4087L26.2627 10.8891Z" fill="white"/>
</svg>
