<svg width="189" height="151" viewBox="0 0 189 151" fill="none" xmlns="http://www.w3.org/2000/svg">
<circle cx="70" cy="81" r="70" fill="#B8DAFC"/>
<g clip-path="url(#clip0)">
<path d="M67.4661 145.465C70.2228 143.135 71.8973 139.456 71.4581 135.873C71.019 132.291 68.2992 128.998 64.7712 128.237C61.2433 127.477 57.2216 129.582 56.15 133.029C55.5603 126.384 54.8808 119.461 51.3482 113.803C48.1496 108.68 42.6094 105.014 36.6052 104.358C30.601 103.702 24.2793 106.179 20.5347 110.918C16.7901 115.657 15.8732 122.547 18.4958 127.988C20.4278 131.996 23.9873 134.979 27.7167 137.405C39.7677 145.181 54.2213 148.343 68.4182 146.31" fill="#F2F2F2"/>
<path d="M26.4738 106.316C31.428 110.351 35.973 114.865 40.043 119.79C46.4125 127.473 51.5668 136.086 55.3263 145.33C55.6015 146.005 54.5064 146.298 54.2343 145.631C51.8435 139.787 48.8857 134.19 45.4032 128.923C39.9727 120.694 33.3195 113.341 25.673 107.117C25.1076 106.657 25.9131 105.86 26.4738 106.316V106.316Z" fill="white"/>
<path d="M69.3702 145.465C66.6135 143.135 64.9391 139.456 65.3782 135.873C65.8173 132.291 68.5371 128.998 72.0651 128.237C75.5931 127.477 79.6148 129.582 80.6863 133.029C81.276 126.384 81.9556 119.461 85.4882 113.803C88.6868 108.68 94.2269 105.014 100.231 104.358C106.235 103.702 112.557 106.179 116.302 110.918C120.046 115.657 120.963 122.547 118.341 127.988C116.409 131.996 112.849 134.979 109.12 137.405C97.0687 145.181 82.6151 148.343 68.4182 146.31" fill="#F2F2F2"/>
<path d="M110.365 106.316C105.411 110.351 100.866 114.865 96.7961 119.79C90.4265 127.473 85.2722 136.086 81.5127 145.33C81.2375 146.005 82.3326 146.298 82.6048 145.631C88.756 130.608 98.5758 117.366 111.166 107.117C111.731 106.657 110.926 105.86 110.365 106.316V106.316Z" fill="white"/>
<path d="M77.5544 66.1282C82.6542 66.1282 86.7884 61.994 86.7884 56.8942C86.7884 51.7944 82.6542 47.6602 77.5544 47.6602C72.4545 47.6602 68.3203 51.7944 68.3203 56.8942C68.3203 61.994 72.4545 66.1282 77.5544 66.1282Z" fill="#F2F2F2"/>
<path d="M49.0825 25.0625H112.702V28.5432H57.2041C53.941 28.5432 50.7099 29.1859 47.6952 30.4347C44.6805 31.6834 41.9412 33.5137 39.6339 35.821C37.3265 38.1284 35.4962 40.8676 34.2475 43.8823C32.9987 46.897 32.356 50.1282 32.356 53.3913V92.9364H25.3946C25.0869 92.9364 24.7918 92.8141 24.5742 92.5965C24.3566 92.379 24.2344 92.0839 24.2344 91.7761V49.9105C24.2344 46.6474 24.8771 43.4163 26.1258 40.4016C27.3746 37.3869 29.2049 34.6477 31.5122 32.3403C33.8196 30.0329 36.5588 28.2027 39.5735 26.9539C42.5882 25.7052 45.8194 25.0625 49.0825 25.0625Z" fill="#F2F2F2"/>
<path d="M61.3203 145.661V92.7891H76.8097V145.661C76.8093 146.017 76.6679 146.357 76.4166 146.609C76.1653 146.86 75.8246 147.001 75.4692 147.002H62.6607C62.3054 147.001 61.9647 146.86 61.7134 146.609C61.4621 146.357 61.3207 146.017 61.3203 145.661Z" fill="#3F3D56"/>
<path d="M20.957 91.746V48.7528C20.9648 41.9085 23.687 35.3468 28.5267 30.5072C33.3663 25.6675 39.928 22.9452 46.7722 22.9375H112.404V93.2354H22.4464C22.0515 93.2349 21.673 93.0779 21.3938 92.7987C21.1145 92.5194 20.9575 92.1409 20.957 91.746ZM111.808 23.5332H46.7722C40.0859 23.5408 33.6756 26.2003 28.9477 30.9282C24.2198 35.6562 21.5603 42.0665 21.5528 48.7528V91.746C21.553 91.9829 21.6473 92.2101 21.8148 92.3776C21.9823 92.5451 22.2095 92.6394 22.4464 92.6396H111.808V23.5332Z" fill="#3F3D56"/>
<path d="M77.5528 61.6596C76.1313 61.658 74.7684 61.0926 73.7632 60.0874C72.7581 59.0822 72.1927 57.7194 72.1911 56.2979V17.8723C72.1908 17.6354 72.0966 17.4083 71.9291 17.2407C71.7615 17.0732 71.5344 16.979 71.2975 16.9787H50.4464C50.0515 16.9783 49.673 16.8212 49.3938 16.542C49.1146 16.2628 48.9575 15.8842 48.957 15.4894V1.48936C48.9575 1.0945 49.1146 0.715938 49.3938 0.436727C49.673 0.157517 50.0515 0.000457246 50.4464 0H81.4251C81.82 0.000451739 82.1985 0.157511 82.4777 0.436723C82.757 0.715934 82.914 1.0945 82.9145 1.48936V56.2979C82.9129 57.7194 82.3475 59.0822 81.3423 60.0874C80.3371 61.0926 78.9743 61.658 77.5528 61.6596Z" fill="#6C63FF"/>
<path d="M114.787 22.3399C119.281 22.3305 123.594 24.1065 126.778 27.2773C129.962 30.4481 131.757 34.7539 131.766 39.2475V88.1908H165.128C166.468 88.188 167.754 88.7178 168.704 89.6634C169.654 90.6091 170.189 91.8933 170.192 93.2335H97.8086V39.2475C97.818 34.7539 99.6121 30.4481 102.796 27.2773C105.98 24.1065 110.294 22.3305 114.787 22.3399Z" fill="#3F3D56"/>
<path d="M110.71 50.2122L114.226 64.7353L182.999 48.0867L179.483 33.5637C179.441 33.3861 179.354 33.2221 179.232 33.087C179.109 32.9519 178.954 32.8499 178.781 32.7907C178.654 32.7458 178.519 32.7255 178.384 32.7309L138.63 12.1473C138.397 12.0284 138.129 11.9966 137.875 12.0577C137.621 12.1189 137.396 12.2689 137.243 12.4807L118.084 39.198L110.861 49.2729C110.848 49.2905 110.839 49.3108 110.834 49.3323C110.83 49.3538 110.83 49.376 110.835 49.3975C110.688 49.6421 110.643 49.9349 110.71 50.2122Z" fill="white"/>
<path d="M110.836 49.3975C110.839 49.4164 110.846 49.4344 110.857 49.4505C110.867 49.4667 110.88 49.4806 110.896 49.4915C110.915 49.5043 110.936 49.5132 110.958 49.5176C110.98 49.5219 111.003 49.5218 111.025 49.517C111.061 49.5074 111.093 49.4856 111.114 49.4553L111.139 49.4209L111.515 48.895L118.345 39.3737L137.499 12.6626C137.608 12.5112 137.768 12.404 137.949 12.3605C138.131 12.317 138.322 12.34 138.488 12.4254L177.934 32.8495L178.288 33.0332C178.302 33.0392 178.317 33.0444 178.332 33.0486C178.358 33.0438 178.385 33.0412 178.413 33.0409C178.45 33.0285 178.481 33.0024 178.499 32.968C178.509 32.9498 178.514 32.93 178.516 32.9095C178.518 32.8891 178.516 32.8685 178.51 32.8489C178.504 32.8293 178.494 32.8111 178.481 32.7953C178.468 32.7795 178.452 32.7664 178.434 32.7569L178.385 32.7309L138.631 12.1473C138.398 12.0284 138.13 11.9966 137.876 12.0577C137.622 12.1189 137.398 12.2689 137.244 12.4807L118.085 39.198L110.862 49.2729C110.849 49.2905 110.84 49.3108 110.835 49.3323C110.831 49.3538 110.831 49.376 110.836 49.3975Z" fill="#3F3D56"/>
<path d="M131.492 50.8759L133.023 51.0458L144.385 52.3044L151.917 53.1382L152.362 53.1877L161.76 45.8467L162.12 45.5655L164.34 43.8318L172.238 37.664L172.285 37.2308L175.094 11.8776C175.132 11.5285 175.031 11.1785 174.811 10.9042C174.592 10.63 174.273 10.4539 173.924 10.4146L136.435 6.26176C136.086 6.22363 135.736 6.3254 135.461 6.54476C135.187 6.76413 135.011 7.08322 134.972 7.43216L132.991 25.3157L131.892 35.2306L130.909 44.1008L130.453 48.2201L130.32 49.4133C130.282 49.7626 130.384 50.1126 130.604 50.3868C130.824 50.6609 131.143 50.8368 131.492 50.8759Z" fill="#E6E6E6"/>
<path d="M141.795 28.6555L158.034 30.4541L163.793 31.0917C164.048 31.1199 164.305 31.0977 164.551 31.0264C164.796 30.9551 165.026 30.8362 165.225 30.6763C165.425 30.5164 165.591 30.3188 165.715 30.0946C165.838 29.8705 165.916 29.6243 165.944 29.37C165.972 29.1158 165.95 28.8585 165.879 28.6128C165.807 28.3671 165.688 28.1379 165.529 27.9382C165.369 27.7385 165.171 27.5722 164.947 27.4489C164.723 27.3256 164.477 27.2476 164.222 27.2194L157.059 26.4261L142.226 24.7813C141.712 24.7246 141.197 24.8741 140.793 25.1971C140.39 25.52 140.131 25.9899 140.074 26.5035C140.017 27.0171 140.167 27.5323 140.489 27.9358C140.812 28.3394 141.282 28.5982 141.795 28.6555Z" fill="white"/>
<path d="M140.869 35.8383C140.911 35.8458 140.952 35.8532 140.995 35.8574L159.846 37.9457L162.993 38.2951C163.507 38.3519 164.022 38.2023 164.426 37.8793C164.829 37.5562 165.088 37.0861 165.145 36.5724C165.201 36.0587 165.052 35.5435 164.729 35.1401C164.406 34.7366 163.936 34.4781 163.422 34.4213L158.871 33.9178L143.938 32.2631L141.426 31.9847C140.923 31.9286 140.418 32.0702 140.018 32.3794C139.618 32.6887 139.354 33.1414 139.282 33.6419C139.209 34.1424 139.335 34.6513 139.631 35.0612C139.927 35.4711 140.371 35.7497 140.869 35.8382V35.8383Z" fill="white"/>
<path d="M138.733 42.2086C138.888 42.4651 139.099 42.6825 139.351 42.8439C139.604 43.0054 139.89 43.1065 140.187 43.1395L147.913 43.9953L161.674 45.5198L161.677 45.5191L162.117 45.5681L164.337 43.8344C164.351 43.7027 164.351 43.57 164.338 43.4382C164.291 42.996 164.094 42.583 163.781 42.2676C163.467 41.9521 163.056 41.7531 162.614 41.7035L160.702 41.4911L153.119 40.6519L147.663 40.0468L140.616 39.2657C140.254 39.2258 139.889 39.2876 139.561 39.4443C139.233 39.601 138.956 39.8462 138.76 40.1524C138.564 40.4585 138.458 40.8133 138.453 41.1766C138.449 41.54 138.546 41.8974 138.733 42.2086L138.733 42.2086Z" fill="white"/>
<path d="M149.585 19.8729L153.625 20.3204L155.41 20.5186L158.105 20.8169C158.619 20.8738 159.134 20.7242 159.538 20.4011C159.941 20.0781 160.2 19.608 160.257 19.0943C160.313 18.5806 160.164 18.0653 159.841 17.6619C159.518 17.2585 159.048 16.9999 158.534 16.9431L150.015 16.0002C149.501 15.9431 148.986 16.0924 148.583 16.4152C148.179 16.7379 147.921 17.2078 147.863 17.7213C147.806 18.2349 147.956 18.7501 148.278 19.1536C148.601 19.5571 149.071 19.8158 149.585 19.8729V19.8729Z" fill="white"/>
<path d="M116.549 30.663L121.475 51.0117L129.696 52.5751L137.302 54.023L145.461 55.5756L148.069 56.0718C148.221 56.1006 148.378 56.0966 148.529 56.0601C148.68 56.0235 148.822 55.9553 148.944 55.8598L151.036 54.2261L152.36 53.1919L161.759 45.8509L155.783 21.1651C155.724 20.9196 155.595 20.6962 155.412 20.522C155.252 20.3679 155.055 20.2566 154.841 20.1984C154.626 20.1403 154.4 20.1371 154.184 20.1892L117.525 29.0636C117.183 29.1465 116.889 29.3615 116.706 29.6614C116.523 29.9612 116.466 30.3215 116.549 30.663Z" fill="#6C63FF"/>
<path d="M127.843 46.848C127.965 47.35 128.282 47.783 128.723 48.0521C129.163 48.3212 129.693 48.4043 130.195 48.2832L151.706 43.0759C152.208 42.9537 152.641 42.6374 152.91 42.1966C153.179 41.7557 153.262 41.2261 153.141 40.7239C153.136 40.699 153.129 40.6745 153.12 40.6505C152.983 40.1663 152.663 39.7542 152.229 39.5003C151.794 39.2465 151.278 39.1707 150.789 39.2888L129.279 44.4961C128.777 44.6181 128.344 44.9342 128.074 45.3752C127.805 45.8161 127.722 46.3459 127.843 46.848Z" fill="white"/>
<path d="M129.695 52.5712L137.301 54.0191L153.411 50.1191C153.913 49.9976 154.346 49.6815 154.616 49.2404C154.885 48.7993 154.968 48.2694 154.846 47.7672C154.724 47.265 154.408 46.8317 153.967 46.5625C153.526 46.2934 152.996 46.2105 152.494 46.332L130.983 51.5393C130.534 51.6473 130.138 51.9127 129.867 52.2874C129.802 52.377 129.744 52.4719 129.695 52.5712Z" fill="white"/>
<path d="M145.461 55.5721L148.068 56.0683C148.221 56.0972 148.378 56.0932 148.529 56.0566C148.68 56.0201 148.821 55.9518 148.944 55.8563L151.035 54.2227L145.461 55.5721Z" fill="white"/>
<path d="M132.176 35.9388C132.298 36.4408 132.614 36.8738 133.055 37.1429C133.496 37.412 134.026 37.495 134.528 37.3739L142.859 35.357C143.361 35.2348 143.794 34.9186 144.063 34.4777C144.332 34.0368 144.415 33.5073 144.294 33.0051C144.23 32.7353 144.107 32.4826 143.936 32.2645C143.705 31.9697 143.395 31.7474 143.041 31.6242C142.688 31.5011 142.306 31.4822 141.942 31.5699L133.611 33.5869C133.109 33.7085 132.675 34.0246 132.406 34.4656C132.137 34.9067 132.054 35.4366 132.176 35.9388V35.9388Z" fill="white"/>
<path d="M137.299 54.0215L145.46 55.5745L148.067 56.0709C148.22 56.0994 148.376 56.0952 148.527 56.0587C148.678 56.0222 148.82 55.9541 148.942 55.859L151.035 54.2249L150.301 54.4028L148.75 55.6124C148.663 55.6804 148.562 55.729 148.454 55.7551C148.346 55.7811 148.234 55.7841 148.125 55.7638L146.195 55.3967L138.034 53.8437L137.299 54.0215ZM161.677 45.5205L161.756 45.8487L162.118 45.5673L161.677 45.5205ZM137.299 54.0215L145.46 55.5745L148.067 56.0709C148.22 56.0994 148.376 56.0952 148.527 56.0587C148.678 56.0222 148.82 55.9541 148.942 55.859L151.035 54.2249L150.301 54.4028L148.75 55.6124C148.663 55.6804 148.562 55.729 148.454 55.7551C148.346 55.7811 148.234 55.7841 148.125 55.7638L146.195 55.3967L138.034 53.8437L137.299 54.0215ZM137.299 54.0215L145.46 55.5745L148.067 56.0709C148.22 56.0994 148.376 56.0952 148.527 56.0587C148.678 56.0222 148.82 55.9541 148.942 55.859L151.035 54.2249L150.301 54.4028L148.75 55.6124C148.663 55.6804 148.562 55.729 148.454 55.7551C148.346 55.7811 148.234 55.7841 148.125 55.7638L146.195 55.3967L138.034 53.8437L137.299 54.0215ZM110.71 50.2127L119.919 88.254C119.988 88.5351 120.165 88.7776 120.412 88.9283C120.659 89.079 120.955 89.1256 121.237 89.0578L187.889 72.9226C188.17 72.8543 188.412 72.6773 188.563 72.4303C188.714 72.1833 188.76 71.8867 188.693 71.6054L179.483 33.5641C179.441 33.3865 179.354 33.2226 179.232 33.0874C179.109 32.9523 178.954 32.8504 178.781 32.7911C178.654 32.7463 178.519 32.726 178.384 32.7313C178.226 32.7358 178.072 32.7764 177.933 32.8499C177.868 32.8805 177.808 32.9181 177.752 32.9623L172.282 37.2337L164.337 43.4394L161.676 45.5183L161.677 45.5205L161.674 45.5211L151.914 53.14L150.301 54.4027L148.75 55.6124C148.663 55.6803 148.562 55.729 148.454 55.755C148.346 55.7811 148.234 55.7841 148.125 55.7638L146.195 55.3967L138.034 53.8437L129.866 52.2901L111.975 48.8855C111.823 48.8553 111.665 48.8587 111.514 48.8954C111.311 48.9452 111.126 49.0523 110.981 49.204C110.926 49.2636 110.877 49.3286 110.835 49.3979C110.688 49.6426 110.643 49.9353 110.71 50.2127ZM137.299 54.0215L145.46 55.5745L148.067 56.0709C148.22 56.0994 148.376 56.0952 148.527 56.0587C148.678 56.0222 148.82 55.9541 148.942 55.859L151.035 54.2249L150.301 54.4028L148.75 55.6124C148.663 55.6804 148.562 55.729 148.454 55.7551C148.346 55.7811 148.234 55.7841 148.125 55.7638L146.195 55.3967L138.034 53.8437L137.299 54.0215ZM137.299 54.0215L145.46 55.5745L148.067 56.0709C148.22 56.0994 148.376 56.0952 148.527 56.0587C148.678 56.0222 148.82 55.9541 148.942 55.859L151.035 54.2249L150.301 54.4028L148.75 55.6124C148.663 55.6804 148.562 55.729 148.454 55.7551C148.346 55.7811 148.234 55.7841 148.125 55.7638L146.195 55.3967L138.034 53.8437L137.299 54.0215ZM137.299 54.0215L145.46 55.5745L148.067 56.0709C148.22 56.0994 148.376 56.0952 148.527 56.0587C148.678 56.0222 148.82 55.9541 148.942 55.859L151.035 54.2249L150.301 54.4028L148.75 55.6124C148.663 55.6804 148.562 55.729 148.454 55.7551C148.346 55.7811 148.234 55.7841 148.125 55.7638L146.195 55.3967L138.034 53.8437L137.299 54.0215Z" fill="white"/>
<path d="M137.299 54.0215L145.46 55.5745L148.067 56.0709C148.22 56.0994 148.376 56.0952 148.527 56.0587C148.678 56.0222 148.82 55.9541 148.942 55.859L151.035 54.2249L150.301 54.4027L148.75 55.6124C148.663 55.6803 148.562 55.729 148.454 55.755C148.346 55.7811 148.234 55.7841 148.125 55.7637L146.195 55.3967L138.034 53.8437L137.299 54.0215ZM161.677 45.5205L161.756 45.8487L162.118 45.5673L161.677 45.5205ZM137.299 54.0215L145.46 55.5745L148.067 56.0709C148.22 56.0994 148.376 56.0952 148.527 56.0587C148.678 56.0222 148.82 55.9541 148.942 55.859L151.035 54.2249L150.301 54.4027L148.75 55.6124C148.663 55.6803 148.562 55.729 148.454 55.755C148.346 55.7811 148.234 55.7841 148.125 55.7637L146.195 55.3967L138.034 53.8437L137.299 54.0215ZM137.299 54.0215L145.46 55.5745L148.067 56.0709C148.22 56.0994 148.376 56.0952 148.527 56.0587C148.678 56.0222 148.82 55.9541 148.942 55.859L151.035 54.2249L150.301 54.4027L148.75 55.6124C148.663 55.6803 148.562 55.729 148.454 55.755C148.346 55.7811 148.234 55.7841 148.125 55.7637L146.195 55.3967L138.034 53.8437L137.299 54.0215ZM111.138 49.4214L111.179 49.4517C111.185 49.4406 111.197 49.4307 111.206 49.4191C111.296 49.3251 111.408 49.2551 111.532 49.2152C111.656 49.1752 111.788 49.1667 111.916 49.1904L129.695 52.5724L137.299 54.0215L145.46 55.5745L148.067 56.0709C148.22 56.0994 148.376 56.0952 148.527 56.0587C148.678 56.0222 148.82 55.9541 148.942 55.859L151.035 54.2249L150.301 54.4027L148.75 55.6124C148.663 55.6803 148.562 55.729 148.454 55.755C148.346 55.7811 148.234 55.7841 148.125 55.7637L146.195 55.3967L138.034 53.8437L129.866 52.2901L111.975 48.8855C111.823 48.8553 111.665 48.8586 111.514 48.8954L111.138 49.4214ZM110.71 50.2127L119.919 88.254C119.988 88.5351 120.165 88.7776 120.412 88.9283C120.659 89.079 120.955 89.1256 121.237 89.0578L187.889 72.9226C188.17 72.8543 188.412 72.6773 188.563 72.4303C188.714 72.1833 188.76 71.8867 188.693 71.6054L179.483 33.5641C179.441 33.3865 179.354 33.2226 179.232 33.0874C179.109 32.9523 178.954 32.8504 178.781 32.7911C178.654 32.7463 178.519 32.726 178.384 32.7313C178.226 32.7358 178.072 32.7764 177.933 32.8499C177.868 32.8805 177.808 32.9181 177.752 32.9623L172.282 37.2337L164.337 43.4394L161.676 45.5183L161.677 45.5205L161.674 45.5211L151.914 53.14L150.301 54.4027L148.75 55.6124C148.663 55.6803 148.562 55.729 148.454 55.755C148.346 55.7811 148.234 55.7841 148.125 55.7638L146.195 55.3967L138.034 53.8437L129.866 52.2901L111.975 48.8855C111.823 48.8553 111.665 48.8586 111.514 48.8954C111.311 48.9451 111.126 49.0523 110.981 49.204C110.926 49.2636 110.877 49.3286 110.835 49.3979C110.688 49.6426 110.643 49.9353 110.71 50.2127ZM111.014 50.1391C110.987 50.027 110.985 49.9102 111.009 49.7973C111.033 49.6844 111.081 49.5783 111.152 49.4866C111.158 49.4732 111.167 49.4613 111.179 49.4517C111.185 49.4406 111.197 49.4307 111.206 49.4191C111.296 49.3252 111.408 49.2551 111.532 49.2152C111.656 49.1752 111.788 49.1667 111.916 49.1904L129.695 52.5724L137.299 54.0215L145.46 55.5745L148.067 56.0709C148.22 56.0994 148.376 56.0952 148.527 56.0587C148.678 56.0222 148.82 55.9541 148.942 55.859L151.035 54.2249L152.359 53.1907L161.756 45.8487L162.118 45.5673L164.336 43.8344L172.235 37.6657L177.946 33.206C178.033 33.1383 178.133 33.0899 178.24 33.064C178.27 33.0566 178.3 33.0517 178.331 33.049C178.357 33.0442 178.384 33.0416 178.412 33.0413C178.503 33.0404 178.594 33.0552 178.68 33.0851C178.803 33.1279 178.913 33.2009 179.001 33.2973C179.089 33.3937 179.151 33.5105 179.182 33.6371L188.391 71.6784C188.415 71.7781 188.42 71.8816 188.404 71.9829C188.388 72.0843 188.352 72.1816 188.299 72.2691C188.246 72.3567 188.175 72.4329 188.092 72.4933C188.01 72.5537 187.915 72.5972 187.816 72.6212L121.164 88.7563C120.963 88.8047 120.75 88.7712 120.574 88.6632C120.398 88.5552 120.271 88.3815 120.223 88.1805L111.014 50.1391ZM137.299 54.0215L145.46 55.5745L148.067 56.0709C148.22 56.0994 148.376 56.0952 148.527 56.0587C148.678 56.0222 148.82 55.9541 148.942 55.859L151.035 54.2249L150.301 54.4028L148.75 55.6124C148.663 55.6804 148.562 55.729 148.454 55.7551C148.346 55.7811 148.234 55.7841 148.125 55.7638L146.195 55.3967L138.034 53.8437L137.299 54.0215ZM137.299 54.0215L145.46 55.5745L148.067 56.0709C148.22 56.0994 148.376 56.0952 148.527 56.0587C148.678 56.0222 148.82 55.9541 148.942 55.859L151.035 54.2249L150.301 54.4028L148.75 55.6124C148.663 55.6804 148.562 55.729 148.454 55.7551C148.346 55.7811 148.234 55.7841 148.125 55.7638L146.195 55.3967L138.034 53.8437L137.299 54.0215ZM137.299 54.0215L145.46 55.5745L148.067 56.0709C148.22 56.0994 148.376 56.0952 148.527 56.0587C148.678 56.0222 148.82 55.9541 148.942 55.859L151.035 54.2249L150.301 54.4028L148.75 55.6124C148.663 55.6804 148.562 55.729 148.454 55.7551C148.346 55.7811 148.234 55.7841 148.125 55.7638L146.195 55.3967L138.034 53.8437L137.299 54.0215Z" fill="#3F3D56"/>
<path d="M170.517 65.4477C170.366 64.8243 170.47 64.1669 170.804 63.6196C171.138 63.0722 171.675 62.6797 172.298 62.5282L180.71 60.4917C181.333 60.3433 181.989 60.4477 182.535 60.782C183.08 61.1163 183.471 61.6532 183.622 62.2752C183.772 62.8972 183.67 63.5535 183.338 64.1003C183.005 64.6472 182.47 65.04 181.848 65.1927L173.436 67.2292C172.813 67.3793 172.155 67.2761 171.608 66.9421C171.061 66.6082 170.668 66.0707 170.517 65.4477Z" fill="#6C63FF"/>
<path d="M77.55 58.3812C78.7015 58.3812 79.6351 57.4476 79.6351 56.296C79.6351 55.1445 78.7015 54.2109 77.55 54.2109C76.3984 54.2109 75.4648 55.1445 75.4648 56.296C75.4648 57.4476 76.3984 58.3812 77.55 58.3812Z" fill="white"/>
</g>
<defs>
<clipPath id="clip0">
<rect width="171.723" height="147" fill="white" transform="translate(17)"/>
</clipPath>
</defs>
</svg>
