<svg width="260" height="186" viewBox="0 0 260 186" fill="none" xmlns="http://www.w3.org/2000/svg">
<g clip-path="url(#clip0)">
<path d="M252.108 54.5059H109.948C107.947 54.5077 106.028 55.3034 104.613 56.7184C103.198 58.1334 102.402 60.052 102.4 62.0531V85.0919C102.402 87.0929 103.198 89.0116 104.613 90.4265C106.028 91.8415 107.947 92.6372 109.948 92.639H252.108C254.109 92.6372 256.028 91.8415 257.443 90.4265C258.858 89.0116 259.653 87.0929 259.655 85.0919V62.0531C259.653 60.052 258.858 58.1334 257.443 56.7184C256.028 55.3034 254.109 54.5077 252.108 54.5059Z" fill="#F2F2F2"/>
<path d="M57.0102 186.001H0.452462C0.332461 186.001 0.217369 185.953 0.132516 185.868C0.0476627 185.783 0 185.668 0 185.548C0 185.428 0.0476627 185.313 0.132516 185.228C0.217369 185.143 0.332461 185.096 0.452462 185.096H57.0102C57.1302 185.096 57.2452 185.143 57.3301 185.228C57.415 185.313 57.4626 185.428 57.4626 185.548C57.4626 185.668 57.415 185.783 57.3301 185.868C57.2452 185.953 57.1302 186.001 57.0102 186.001Z" fill="#3F3D56"/>
<path d="M48.706 44.3316C48.1815 44.6626 47.736 45.1047 47.4008 45.6266C47.0656 46.1485 46.8489 46.7375 46.766 47.3522C46.6831 47.9669 46.736 48.5923 46.9209 49.1843C47.1058 49.7764 47.4183 50.3207 47.8363 50.7789L43.7246 59.5592L48.4509 63.3592L54.0833 50.8782C54.8066 50.1249 55.2284 49.1325 55.2688 48.089C55.3092 47.0454 54.9654 46.0234 54.3025 45.2164C53.6397 44.4094 52.7039 43.8736 51.6724 43.7106C50.6409 43.5475 49.5855 43.7684 48.706 44.3315V44.3316Z" fill="#FFB8B8"/>
<path d="M25.0769 47.8953C26.3782 47.1136 27.9304 46.8628 29.4116 47.1949C30.8929 47.5269 32.1895 48.4163 33.0325 49.6787L41.4459 62.2763L44.3668 55.8371C44.5492 55.435 44.8723 55.1135 45.2752 54.933C45.6782 54.7525 46.1332 54.7256 46.5546 54.8572L50.9631 56.2343C51.1934 56.3062 51.407 56.4235 51.5914 56.5792C51.7757 56.7349 51.927 56.9259 52.0365 57.141C52.1459 57.356 52.2112 57.5908 52.2286 57.8314C52.246 58.0721 52.2151 58.3138 52.1377 58.5423L49.12 67.4533C48.7382 68.5805 48.1004 69.6039 47.2566 70.4431C46.4128 71.2823 45.386 71.9145 44.2567 72.2901C43.1275 72.6658 41.9265 72.7745 40.7482 72.6079C39.5698 72.4412 38.4461 72.0038 37.4652 71.3298C37.0069 71.0148 36.584 70.6511 36.204 70.2451L23.8055 56.9973C23.2034 56.354 22.7528 55.5842 22.4867 54.7442C22.2207 53.9042 22.1459 53.0153 22.2678 52.1427C22.3896 51.27 22.7052 50.4357 23.1912 49.7008C23.6773 48.9659 24.3216 48.349 25.0769 47.8953Z" fill="#CCCCCC"/>
<path d="M52.2953 34.8782C52.5211 34.8838 52.7354 34.9789 52.8912 35.1425C53.0469 35.3062 53.1312 35.525 53.1256 35.7508L53.053 38.6749L53.1996 38.6883L53.147 40.6743L53.0038 40.6564L52.7436 51.132C52.7346 51.4906 52.5956 51.8336 52.3523 52.0972C52.1091 52.3607 51.7783 52.5267 51.4216 52.5643L44.7605 53.2656C44.5983 53.2826 44.4344 53.264 44.2802 53.211C44.1259 53.1581 43.9852 53.072 43.8677 52.9588C43.7503 52.8457 43.659 52.7082 43.6003 52.5561C43.5416 52.4039 43.5169 52.2408 43.5279 52.0781L44.5382 37.1616C44.5594 36.8483 44.6866 36.5515 44.8988 36.3201C45.1111 36.0887 45.3957 35.9363 45.706 35.8881L52.1364 34.8891C52.1889 34.8805 52.2421 34.8769 52.2953 34.8782Z" fill="#3F3D56"/>
<path d="M47.1392 36.4297L50.5197 35.9045C50.5806 35.895 50.6366 35.8658 50.6791 35.8213C50.7217 35.7768 50.7484 35.7195 50.7551 35.6582C50.7626 35.5889 50.7929 35.524 50.841 35.4736C50.8892 35.4232 50.9527 35.39 51.0216 35.3793L51.7337 35.2687C51.8309 35.2536 51.9302 35.26 52.0246 35.2875C52.119 35.315 52.2062 35.3628 52.2801 35.4277C52.354 35.4926 52.4128 35.5728 52.4523 35.6629C52.4918 35.753 52.511 35.8506 52.5086 35.9489L52.1426 51.1367C52.1381 51.3252 52.0643 51.5054 51.9354 51.6429C51.8064 51.7805 51.6314 51.8657 51.4436 51.8824L44.7874 52.4742C44.7025 52.4817 44.617 52.4709 44.5366 52.4423C44.4563 52.4138 44.3831 52.3683 44.322 52.3088C44.2609 52.2494 44.2133 52.1775 44.1825 52.098C44.1517 52.0185 44.1385 51.9333 44.1437 51.8482L45.0418 37.0695C45.055 36.8518 45.1423 36.6451 45.2892 36.4838C45.4361 36.3226 45.6337 36.2163 45.8493 36.1829L46.5999 36.0662C46.6275 36.1836 46.6984 36.2862 46.7983 36.3536C46.8983 36.421 47.0201 36.4482 47.1392 36.4297Z" fill="white"/>
<path d="M31.4569 180.508L36.6294 180.507L39.0895 160.556L31.4551 160.557L31.4569 180.508Z" fill="#FFB8B8"/>
<path d="M46.6035 185.31L30.3467 185.311L30.3461 179.03L40.3219 179.029C41.1467 179.029 41.9635 179.191 42.7256 179.507C43.4877 179.823 44.1801 180.285 44.7634 180.868C45.3467 181.452 45.8095 182.144 46.1252 182.906C46.4409 183.668 46.6034 184.485 46.6035 185.31L46.6035 185.31Z" fill="#2F2E41"/>
<path d="M15.5585 180.508L20.731 180.507L23.191 160.556L15.5566 160.557L15.5585 180.508Z" fill="#FFB8B8"/>
<path d="M30.707 185.31L14.4502 185.311L14.4496 179.03L24.4254 179.029C26.0913 179.029 27.6889 179.691 28.867 180.868C30.045 182.046 30.7069 183.644 30.707 185.31L30.707 185.31Z" fill="#2F2E41"/>
<path d="M30.7067 41.1135C36.8442 41.1135 41.8196 36.1381 41.8196 30.0006C41.8196 23.8631 36.8442 18.8877 30.7067 18.8877C24.5692 18.8877 19.5938 23.8631 19.5938 30.0006C19.5938 36.1381 24.5692 41.1135 30.7067 41.1135Z" fill="#FFB8B8"/>
<path d="M36.4273 59.7323C36.3366 56.8751 35.5322 54.0861 34.0876 51.6194C32.643 49.1528 30.604 47.0868 28.1565 45.6099C25.2855 43.9181 22.1429 43.2583 19.6428 45.7585C18.1415 47.2974 16.9393 49.1018 16.0973 51.08C13.7846 56.4705 13.6333 62.5439 15.6747 68.0429L21.6253 84.4826L35.3978 85.9747C35.6565 86.0027 35.9182 85.9746 36.1651 85.8923C36.4119 85.81 36.6381 85.6755 36.8283 85.4978C37.0184 85.3202 37.168 85.1037 37.2669 84.863C37.3657 84.6223 37.4115 84.3631 37.4012 84.1031L36.4273 59.7323Z" fill="#2F2E41"/>
<path d="M22.4972 82.459C22.4972 82.459 12.2076 86.3002 14.8978 102.566C17.3118 117.161 15.3934 165.607 14.9741 175.4C14.9541 175.867 15.1156 176.323 15.4247 176.673C15.7338 177.024 16.1664 177.241 16.632 177.279L22.6385 177.78C23.1089 177.819 23.5761 177.673 23.9403 177.373C24.3045 177.072 24.5369 176.641 24.588 176.172L27.69 147.679C27.7022 147.567 27.7556 147.464 27.8398 147.389C27.9239 147.315 28.0329 147.274 28.1453 147.275C28.2578 147.277 28.3657 147.32 28.4481 147.397C28.5304 147.473 28.5813 147.578 28.5907 147.69L30.9022 175.107C30.9411 175.569 31.1558 175.998 31.502 176.307C31.8482 176.615 32.2995 176.778 32.7629 176.764L37.8079 176.604C38.0457 176.597 38.2796 176.542 38.4963 176.444C38.7131 176.346 38.9083 176.207 39.071 176.033C39.2337 175.86 39.3606 175.656 39.4444 175.433C39.5282 175.21 39.5674 174.974 39.5595 174.736L36.5877 84.3588L22.4972 82.459Z" fill="#2F2E41"/>
<path d="M32.9383 29.2676C36.655 30.7919 41.4013 29.0113 43.1983 25.4185C44.9952 21.8257 43.5731 16.9599 40.1242 14.9003C36.6752 12.8407 31.717 13.8964 29.4062 17.1823C27.5265 13.7958 22.6021 12.9325 19.2212 14.8221C15.8402 16.7117 13.9986 20.6697 13.7801 24.5367C13.5617 28.4038 14.7374 32.2133 16.1716 35.8112C18.4914 41.6311 25.9597 44.7647 31.7377 42.3427C29.0925 38.4029 29.6147 32.6376 32.9383 29.2676Z" fill="#2F2E41"/>
<path d="M47.9141 45.6787C47.8152 45.6789 47.719 45.6469 47.6398 45.5876L47.6349 45.5839L46.6017 44.7935C46.5538 44.7568 46.5137 44.7111 46.4835 44.6589C46.4533 44.6066 46.4337 44.549 46.4258 44.4892C46.4179 44.4295 46.4219 44.3687 46.4375 44.3105C46.4531 44.2522 46.48 44.1976 46.5166 44.1497C46.5533 44.1019 46.5991 44.0617 46.6513 44.0316C46.7035 44.0014 46.7611 43.9818 46.8209 43.9739C46.8807 43.966 46.9414 43.97 46.9997 43.9855C47.0579 44.0011 47.1125 44.028 47.1604 44.0647L47.8297 44.5779L49.4111 42.5147C49.4478 42.4669 49.4935 42.4267 49.5457 42.3965C49.5979 42.3664 49.6555 42.3468 49.7153 42.3389C49.775 42.331 49.8358 42.335 49.894 42.3506C49.9522 42.3661 50.0068 42.393 50.0546 42.4297L50.0548 42.4298L50.0449 42.4434L50.055 42.4298C50.1515 42.504 50.2147 42.6134 50.2306 42.734C50.2465 42.8547 50.2139 42.9768 50.1399 43.0734L48.2798 45.4991C48.2367 45.555 48.1814 45.6002 48.1181 45.6313C48.0547 45.6623 47.9851 45.6784 47.9145 45.6782L47.9141 45.6787Z" fill="#6C63FF"/>
<path d="M252.243 0H110.082C108.081 0.00181263 106.163 0.797549 104.748 2.21253C103.333 3.62751 102.537 5.54611 102.535 7.54719V30.586C102.537 32.5871 103.333 34.5057 104.748 35.9207C106.163 37.3357 108.081 38.1314 110.082 38.1332H252.243C254.244 38.1314 256.163 37.3357 257.578 35.9207C258.993 34.5057 259.788 32.5871 259.79 30.586V7.54719C259.788 5.54611 258.993 3.6275 257.578 2.21252C256.163 0.797543 254.244 0.00181263 252.243 0ZM258.996 30.586C258.993 32.3762 258.281 34.0923 257.015 35.3581C255.749 36.624 254.033 37.3362 252.243 37.3387H110.082C108.292 37.3362 106.576 36.624 105.31 35.3581C104.044 34.0923 103.332 32.3762 103.33 30.586V7.54719C103.332 5.75703 104.044 4.04091 105.31 2.77508C106.576 1.50924 108.292 0.796972 110.082 0.794438H252.243C254.033 0.796972 255.749 1.50924 257.015 2.77508C258.281 4.04091 258.993 5.75703 258.996 7.54719V30.586Z" fill="#3F3D56"/>
<path d="M139.013 32.2026C136.415 32.2026 133.875 31.4322 131.715 29.9888C129.555 28.5455 127.871 26.4939 126.877 24.0936C125.883 21.6933 125.623 19.0521 126.129 16.504C126.636 13.9559 127.887 11.6152 129.724 9.77814C131.561 7.94103 133.902 6.68994 136.45 6.18308C138.998 5.67622 141.64 5.93635 144.04 6.93058C146.44 7.92481 148.492 9.60848 149.935 11.7687C151.378 13.9289 152.149 16.4686 152.149 19.0666C152.145 22.5493 150.76 25.8882 148.297 28.3508C145.835 30.8134 142.496 32.1986 139.013 32.2026Z" fill="#6C63FF"/>
<path d="M232.846 29.7921H164.568C163.726 29.7921 162.917 29.4573 162.321 28.8613C161.725 28.2654 161.391 27.4571 161.391 26.6143C161.391 25.7715 161.725 24.9632 162.321 24.3673C162.917 23.7713 163.726 23.4365 164.568 23.4365H232.846C233.689 23.4365 234.497 23.7713 235.093 24.3673C235.689 24.9632 236.024 25.7715 236.024 26.6143C236.024 27.4571 235.689 28.2654 235.093 28.8613C234.497 29.4573 233.689 29.7921 232.846 29.7921Z" fill="#CCCCCC"/>
<path d="M187.166 16.2862H164.568C163.726 16.2862 162.917 15.9514 162.321 15.3555C161.725 14.7595 161.391 13.9512 161.391 13.1084C161.391 12.2656 161.725 11.4574 162.321 10.8614C162.917 10.2655 163.726 9.93066 164.568 9.93066H187.166C188.008 9.93066 188.817 10.2655 189.413 10.8614C190.008 11.4574 190.343 12.2656 190.343 13.1084C190.343 13.9512 190.008 14.7595 189.413 15.3555C188.817 15.9514 188.008 16.2862 187.166 16.2862Z" fill="#CCCCCC"/>
<path d="M138.341 23.6871C138.015 23.6876 137.698 23.5822 137.437 23.3867L137.421 23.3746L134.016 20.7701C133.858 20.6493 133.726 20.4986 133.626 20.3265C133.526 20.1544 133.461 19.9644 133.435 19.7672C133.409 19.5701 133.422 19.3697 133.473 19.1775C133.524 18.9853 133.613 18.8052 133.734 18.6473C133.855 18.4895 134.006 18.357 134.178 18.2576C134.351 18.1581 134.541 18.0936 134.738 18.0677C134.935 18.0418 135.136 18.0551 135.328 18.1067C135.52 18.1584 135.7 18.2473 135.857 18.3686L138.063 20.0597L143.274 13.2612C143.395 13.1036 143.545 12.9713 143.717 12.8719C143.889 12.7725 144.079 12.708 144.276 12.682C144.473 12.656 144.673 12.669 144.865 12.7203C145.057 12.7716 145.237 12.8603 145.394 12.9811L145.395 12.9814L145.362 13.0263L145.396 12.9814C145.714 13.2258 145.922 13.5864 145.974 13.984C146.026 14.3816 145.919 14.7838 145.675 15.1023L139.546 23.0953C139.404 23.2794 139.222 23.4285 139.013 23.5308C138.804 23.6331 138.575 23.686 138.342 23.6853L138.341 23.6871Z" fill="white"/>
<path d="M191.161 61.9873H49.0003C46.9992 61.9891 45.0806 62.7849 43.6656 64.1998C42.2507 65.6148 41.4549 67.5334 41.4531 69.5345V92.5733C41.4549 94.5744 42.2507 96.493 43.6656 97.908C45.0806 99.323 46.9992 100.119 49.0003 100.12H191.161C193.162 100.119 195.081 99.323 196.496 97.908C197.911 96.493 198.706 94.5744 198.708 92.5733V69.5345C198.706 67.5334 197.911 65.6148 196.496 64.1998C195.081 62.7849 193.162 61.9891 191.161 61.9873Z" fill="white"/>
<path d="M191.161 61.9873H49.0003C46.9992 61.9891 45.0806 62.7849 43.6656 64.1998C42.2507 65.6148 41.4549 67.5334 41.4531 69.5345V92.5733C41.4549 94.5744 42.2507 96.493 43.6656 97.908C45.0806 99.323 46.9992 100.119 49.0003 100.12H191.161C193.162 100.119 195.081 99.323 196.496 97.908C197.911 96.493 198.706 94.5744 198.708 92.5733V69.5345C198.706 67.5334 197.911 65.6148 196.496 64.1998C195.081 62.7849 193.162 61.9891 191.161 61.9873ZM197.914 92.5733C197.911 94.3635 197.199 96.0796 195.933 97.3454C194.667 98.6113 192.951 99.3235 191.161 99.326H49.0003C47.2102 99.3235 45.494 98.6113 44.2282 97.3454C42.9624 96.0796 42.2501 94.3635 42.2475 92.5733V69.5345C42.2501 67.7443 42.9623 66.0282 44.2282 64.7624C45.494 63.4965 47.2101 62.7843 49.0003 62.7817H191.161C192.951 62.7843 194.667 63.4965 195.933 64.7624C197.199 66.0282 197.911 67.7443 197.914 69.5345V92.5733Z" fill="#3F3D56"/>
<path d="M77.929 94.1899C75.331 94.1899 72.7913 93.4195 70.6311 91.9762C68.4709 90.5328 66.7872 88.4812 65.7929 86.0809C64.7987 83.6807 64.5385 81.0394 65.0454 78.4913C65.5522 75.9432 66.8033 73.6026 68.6404 71.7654C70.4775 69.9283 72.8181 68.6772 75.3662 68.1704C77.9143 67.6635 80.5556 67.9237 82.9558 68.9179C85.3561 69.9121 87.4077 71.5958 88.8511 73.756C90.2945 75.9162 91.0649 78.4559 91.0649 81.0539C91.061 84.5366 89.6757 87.8755 87.2132 90.3381C84.7506 92.8007 81.4117 94.1859 77.929 94.1899Z" fill="#6C63FF"/>
<path d="M171.764 91.7794H103.486C102.644 91.7794 101.835 91.4446 101.239 90.8486C100.643 90.2527 100.309 89.4444 100.309 88.6016C100.309 87.7588 100.643 86.9505 101.239 86.3546C101.835 85.7586 102.644 85.4238 103.486 85.4238H171.764C172.607 85.4238 173.415 85.7586 174.011 86.3546C174.607 86.9505 174.942 87.7588 174.942 88.6016C174.942 89.4444 174.607 90.2527 174.011 90.8486C173.415 91.4446 172.607 91.7794 171.764 91.7794Z" fill="#CCCCCC"/>
<path d="M126.083 78.2735H103.486C103.069 78.2735 102.656 78.1913 102.27 78.0316C101.885 77.8719 101.534 77.6378 101.239 77.3428C100.944 77.0477 100.71 76.6974 100.55 76.3118C100.391 75.9263 100.309 75.513 100.309 75.0957C100.309 74.6784 100.391 74.2652 100.55 73.8797C100.71 73.4941 100.944 73.1438 101.239 72.8487C101.534 72.5536 101.885 72.3196 102.27 72.1599C102.656 72.0002 103.069 71.918 103.486 71.918H126.083C126.926 71.918 127.735 72.2528 128.33 72.8487C128.926 73.4447 129.261 74.2529 129.261 75.0957C129.261 75.9385 128.926 76.7468 128.33 77.3428C127.735 77.9387 126.926 78.2735 126.083 78.2735Z" fill="#CCCCCC"/>
<path d="M77.259 85.6744C76.9331 85.6749 76.6158 85.5695 76.3551 85.374L76.3389 85.3619L72.9342 82.7574C72.7762 82.6366 72.6435 82.4859 72.5438 82.3138C72.444 82.1417 72.3792 81.9517 72.353 81.7545C72.3268 81.5574 72.3398 81.357 72.3911 81.1648C72.4424 80.9726 72.5311 80.7925 72.6521 80.6346C72.7731 80.4768 72.9241 80.3444 73.0963 80.2449C73.2685 80.1454 73.4587 80.0809 73.6559 80.055C73.8531 80.0292 74.0535 80.0424 74.2456 80.094C74.4377 80.1457 74.6177 80.2347 74.7753 80.3559L76.9806 82.047L82.1918 75.2485C82.3126 75.0909 82.4633 74.9586 82.6353 74.8592C82.8072 74.7598 82.9971 74.6953 83.194 74.6693C83.3909 74.6433 83.5909 74.6563 83.7828 74.7076C83.9747 74.7589 84.1546 74.8476 84.3122 74.9684L84.3126 74.9687L84.2803 75.0136L84.3135 74.9687C84.6315 75.2131 84.8395 75.5737 84.892 75.9713C84.9444 76.3689 84.837 76.7711 84.5932 77.0896L78.4638 85.0826C78.322 85.2667 78.1396 85.4158 77.9309 85.5181C77.7222 85.6204 77.4928 85.6733 77.2603 85.6726L77.259 85.6744Z" fill="white"/>
<path d="M44.3905 67.1838C43.8193 66.9422 43.202 66.8287 42.5821 66.8515C41.9623 66.8743 41.355 67.0326 40.803 67.3155C40.251 67.5984 39.7677 67.9988 39.3872 68.4887C39.0067 68.9785 38.7382 69.5458 38.6007 70.1506L29.0446 71.7877L28.623 77.8376L42.0857 75.3362C43.1171 75.4999 44.1726 75.2796 45.0524 74.717C45.9322 74.1544 46.575 73.2886 46.8591 72.2837C47.1433 71.2788 47.0489 70.2046 46.5939 69.2647C46.1389 68.3247 45.3549 67.5843 44.3905 67.1838L44.3905 67.1838Z" fill="#FFB8B8"/>
<path d="M27.9759 49.8197C29.3606 50.4418 30.4527 51.573 31.0257 52.9787C31.5988 54.3844 31.6088 55.9567 31.0537 57.3695L25.5144 71.4692L32.4685 70.191C32.9028 70.1112 33.3512 70.1929 33.7295 70.4207C34.1077 70.6484 34.3896 71.0066 34.5221 71.4278L35.9084 75.8334C35.9808 76.0636 36.0065 76.3059 35.9839 76.5461C35.9613 76.7864 35.8909 77.0196 35.7768 77.2323C35.6627 77.4449 35.5073 77.6325 35.3196 77.7842C35.132 77.9359 34.9159 78.0485 34.684 78.1154L25.6452 80.7252C24.5018 81.0554 23.2975 81.116 22.1267 80.9024C20.956 80.6887 19.8507 80.2066 18.8976 79.494C17.9445 78.7813 17.1696 77.8574 16.6336 76.7948C16.0977 75.7322 15.8153 74.5599 15.8087 73.3698C15.8056 72.8137 15.8628 72.2589 15.9792 71.7151L19.7771 53.9724C19.9616 53.1108 20.3364 52.3013 20.8741 51.6033C21.4118 50.9053 22.0989 50.3364 22.8849 49.9383C23.671 49.5402 24.5361 49.3229 25.417 49.3024C26.2979 49.2819 27.1722 49.4586 27.9759 49.8197Z" fill="#CCCCCC"/>
</g>
<defs>
<clipPath id="clip0">
<rect width="259.79" height="186" fill="white"/>
</clipPath>
</defs>
</svg>
